<?xml version="1.0" encoding="utf-8"?>
<!-- Generator: Adobe Illustrator 16.0.0, SVG Export Plug-In . SVG Version: 6.00 Build 0)  -->
<!DOCTYPE svg PUBLIC "-//W3C//DTD SVG 1.1//EN" "http://www.w3.org/Graphics/SVG/1.1/DTD/svg11.dtd">
<svg version="1.1" id="Layer_1" xmlns="http://www.w3.org/2000/svg" xmlns:xlink="http://www.w3.org/1999/xlink" x="0px" y="0px"
	 width="16px" height="16px" viewBox="0 0 16 16" enable-background="new 0 0 16 16" xml:space="preserve">
<g>
	<path fill="#8E0923" d="M8.135,1.901c0,0,2.529,0.686,3.431,1.303c0.903,0.619,1.502,1.829,1.644,2.591
		c0.144,0.761,0.844,2.74-0.652,4.924c-1.496,2.185-3.888,2.217-3.888,2.217s-1.6,0.092-2.662-0.494
		c-1.062-0.589-2.092-1.018-2.469-1.69c-0.374-0.678-2.31-4.166,0.213-6.832C6.274,1.256,8.135,1.901,8.135,1.901z"/>
	<g>
		<path fill="#F7931E" d="M10.412,6.422c-0.12-0.168-0.08-0.404,0.089-0.526c0.171-0.118,0.406-0.079,0.527,0.089
			c0.121,0.17,0.082,0.408-0.087,0.529C10.771,6.634,10.533,6.596,10.412,6.422z"/>
		<circle fill="#F7931E" cx="10.167" cy="6.6" r="0.379"/>
		<circle fill="#F7931E" cx="10.561" cy="7.154" r="0.378"/>
		<circle fill="#F7931E" cx="10.955" cy="7.709" r="0.378"/>
		<circle fill="#F7931E" cx="10.354" cy="8.135" r="0.378"/>
	</g>
	<g>
		<circle fill="#F7931E" cx="9.301" cy="9.817" r="0.378"/>
		<circle fill="#F7931E" cx="9.819" cy="10.258" r="0.378"/>
		<path fill="#F7931E" d="M10.549,9.984c-0.135,0.158-0.375,0.18-0.534,0.044C9.856,9.892,9.838,9.653,9.974,9.496
			c0.133-0.158,0.374-0.18,0.531-0.044C10.666,9.586,10.684,9.827,10.549,9.984z"/>
	</g>
	<g>
		<circle fill="#F7931E" cx="8.931" cy="7.517" r="0.379"/>
		<circle fill="#F7931E" cx="8.285" cy="7.305" r="0.377"/>
		<circle fill="#F7931E" cx="8.072" cy="7.95" r="0.378"/>
	</g>
	<g>
		<circle fill="#F7931E" cx="7.776" cy="9.587" r="0.379"/>
		<path fill="#F7931E" d="M7.061,10.368c-0.154-0.141-0.163-0.38-0.023-0.534c0.142-0.153,0.379-0.165,0.532-0.023
			c0.157,0.144,0.166,0.383,0.025,0.534C7.452,10.498,7.215,10.51,7.061,10.368z"/>
		<circle fill="#F7931E" cx="7.815" cy="10.548" r="0.378"/>
	</g>
	<g>
		<circle fill="#F7931E" cx="9.259" cy="5.003" r="0.378"/>
		<circle fill="#F7931E" cx="8.579" cy="4.984" r="0.378"/>
		<circle fill="#F7931E" cx="8.559" cy="5.664" r="0.379"/>
	</g>
	<g>
		<path fill="#F7931E" d="M6.248,5.516C6.104,5.364,6.11,5.126,6.264,4.982c0.148-0.144,0.389-0.137,0.535,0.011
			c0.141,0.152,0.138,0.394-0.016,0.536C6.634,5.673,6.393,5.668,6.248,5.516z"/>
		<circle fill="#F7931E" cx="6.031" cy="5.726" r="0.378"/>
		<circle fill="#F7931E" cx="6.5" cy="6.217" r="0.376"/>
		<path fill="#F7931E" d="M6.697,6.969C6.554,6.82,6.56,6.581,6.71,6.436C6.859,6.292,7.1,6.297,7.244,6.449
			c0.146,0.15,0.139,0.39-0.012,0.532C7.079,7.128,6.841,7.121,6.697,6.969z"/>
	</g>
	<g>
		<path fill="#F7931E" d="M5.71,9.275C5.548,9.403,5.518,9.643,5.646,9.807c0.129,0.165,0.365,0.195,0.528,0.063
			c0.169-0.125,0.197-0.364,0.069-0.529C6.112,9.176,5.878,9.146,5.71,9.275z"/>
		<path fill="#F7931E" d="M5.292,8.739C5.128,8.867,5.1,9.104,5.225,9.27c0.132,0.164,0.369,0.194,0.533,0.066
			c0.165-0.131,0.194-0.365,0.066-0.529C5.695,8.642,5.458,8.612,5.292,8.739z"/>
		<path fill="#F7931E" d="M5.831,8.322C5.665,8.448,5.637,8.687,5.765,8.851c0.129,0.165,0.364,0.194,0.531,0.067
			c0.164-0.13,0.191-0.366,0.066-0.531C6.232,8.223,5.996,8.192,5.831,8.322z"/>
		<path fill="#F7931E" d="M6.367,7.903C6.2,8.033,6.172,8.268,6.302,8.434C6.43,8.598,6.666,8.626,6.831,8.5
			c0.164-0.129,0.194-0.367,0.067-0.53C6.771,7.806,6.533,7.773,6.367,7.903z"/>
	</g>
	
		<path fill="none" stroke="#8E0923" stroke-width="0.9416" stroke-linecap="round" stroke-linejoin="round" stroke-miterlimit="10" d="
		M13.056,7.605c0,0,0.804,0.537,1.925,0.327"/>
	
		<path fill="none" stroke="#8E0923" stroke-width="0.9416" stroke-linecap="round" stroke-linejoin="round" stroke-miterlimit="10" d="
		M12.604,5.521c0,0,1.953-0.408,1.894-0.735"/>
	
		<path fill="none" stroke="#8E0923" stroke-width="0.9416" stroke-linecap="round" stroke-linejoin="round" stroke-miterlimit="10" d="
		M11.155,3.816c0,0,0.868-2.044,0.593-2.233"/>
	
		<line fill="none" stroke="#8E0923" stroke-width="0.9416" stroke-linecap="round" stroke-linejoin="round" stroke-miterlimit="10" x1="8.973" y1="2.606" x2="8.761" y2="0.422"/>
	
		<path fill="none" stroke="#8E0923" stroke-width="0.9416" stroke-linecap="round" stroke-linejoin="round" stroke-miterlimit="10" d="
		M6.284,2.507c0,0,0.28-1.151-0.106-1.416"/>
	
		<path fill="none" stroke="#8E0923" stroke-width="0.9416" stroke-linecap="round" stroke-linejoin="round" stroke-miterlimit="10" d="
		M4.64,3.763c0,0-1.132-1.267-1.324-1.399"/>
	
		<path fill="none" stroke="#8E0923" stroke-width="0.9416" stroke-linecap="round" stroke-linejoin="round" stroke-miterlimit="10" d="
		M3.021,6.333c0,0-1.624-0.693-1.753-0.668"/>
	
		<path fill="none" stroke="#8E0923" stroke-width="0.9416" stroke-linecap="round" stroke-linejoin="round" stroke-miterlimit="10" d="
		M3.507,8.991c0,0-1.86,0.348-2.246,0.42"/>
	
		<line fill="none" stroke="#8E0923" stroke-linecap="round" stroke-linejoin="round" stroke-miterlimit="10" x1="5.072" y1="10.341" x2="3.377" y2="12.818"/>
	
		<line fill="none" stroke="#8E0923" stroke-width="0.9416" stroke-linecap="round" stroke-linejoin="round" stroke-miterlimit="10" x1="7.932" y1="12.346" x2="7.662" y2="14.763"/>
	
		<path fill="none" stroke="#8E0923" stroke-width="0.9416" stroke-linecap="round" stroke-linejoin="round" stroke-miterlimit="10" d="
		M10.443,11.949c0,0,0.886,1.875,0.924,2.077"/>
	
		<line fill="none" stroke="#8E0923" stroke-width="0.9416" stroke-linecap="round" stroke-linejoin="round" stroke-miterlimit="10" x1="12.393" y1="10.255" x2="14.111" y2="10.973"/>
</g>
</svg>
