<?xml version="1.0" encoding="utf-8"?>
<!-- Generator: Adobe Illustrator 16.0.0, SVG Export Plug-In . SVG Version: 6.00 Build 0)  -->
<!DOCTYPE svg PUBLIC "-//W3C//DTD SVG 1.1//EN" "http://www.w3.org/Graphics/SVG/1.1/DTD/svg11.dtd">
<svg version="1.1" id="Layer_1" xmlns="http://www.w3.org/2000/svg" xmlns:xlink="http://www.w3.org/1999/xlink" x="0px" y="0px"
	 width="16px" height="16px" viewBox="0 0 16 16" enable-background="new 0 0 16 16" xml:space="preserve">
<g>
	<path fill="#8E0923" d="M2.645,9.422c0,0-0.194-2.614,0.089-3.67C3.016,4.695,3.959,3.727,4.63,3.34
		c0.669-0.387,2.304-1.707,4.861-1.021c2.557,0.685,3.384,2.93,3.384,2.93s0.617,1.477,0.418,2.674
		c-0.202,1.198-0.263,2.312-0.774,2.891c-0.513,0.577-3.158,3.562-6.513,2.069C2.654,11.391,2.645,9.422,2.645,9.422z"/>
	<g>
		<circle fill="#F7931E" cx="5.843" cy="5.552" r="0.378"/>
		<circle fill="#F7931E" cx="6.401" cy="5.943" r="0.378"/>
		<circle fill="#F7931E" cx="6.792" cy="5.387" r="0.378"/>
		<circle fill="#F7931E" cx="7.184" cy="4.831" r="0.378"/>
		<circle fill="#F7931E" cx="7.786" cy="5.255" r="0.378"/>
	</g>
	<g>
		<circle fill="#F7931E" cx="9.724" cy="5.689" r="0.378"/>
		<circle fill="#F7931E" cx="9.966" cy="5.053" r="0.378"/>
		<circle fill="#F7931E" cx="9.331" cy="4.809" r="0.378"/>
	</g>
	<g>
		<circle fill="#F7931E" cx="7.676" cy="6.803" r="0.378"/>
		<circle fill="#F7931E" cx="7.691" cy="7.482" r="0.378"/>
		<circle fill="#F7931E" cx="8.371" cy="7.469" r="0.378"/>
	</g>
	<g>
		<circle fill="#F7931E" cx="10.013" cy="7.204" r="0.379"/>
		<circle fill="#F7931E" cx="10.64" cy="7.472" r="0.378"/>
		<circle fill="#F7931E" cx="10.907" cy="6.846" r="0.378"/>
	</g>
	<g>
		<circle fill="#F7931E" cx="5.197" cy="7.329" r="0.378"/>
		<circle fill="#F7931E" cx="5.404" cy="7.978" r="0.377"/>
		<circle fill="#F7931E" cx="6.053" cy="7.769" r="0.379"/>
	</g>
	<g>
		<circle fill="#F7931E" cx="6.344" cy="9.826" r="0.379"/>
		<circle fill="#F7931E" cx="6.952" cy="10.134" r="0.377"/>
		<circle fill="#F7931E" cx="7.259" cy="9.527" r="0.377"/>
		<circle fill="#F7931E" cx="7.566" cy="8.92" r="0.378"/>
	</g>
	<g>
		<circle fill="#F7931E" cx="10.609" cy="8.938" r="0.378"/>
		<circle fill="#F7931E" cx="10.243" cy="9.51" r="0.378"/>
		<circle fill="#F7931E" cx="9.67" cy="9.141" r="0.379"/>
		<circle fill="#F7931E" cx="9.097" cy="8.774" r="0.378"/>
	</g>
	
		<path fill="none" stroke="#8E0923" stroke-width="0.9416" stroke-linecap="round" stroke-linejoin="round" stroke-miterlimit="10" d="
		M6.387,2.883c0,0,0.24-0.936-0.33-1.922"/>
	
		<path fill="none" stroke="#8E0923" stroke-width="0.9416" stroke-linecap="round" stroke-linejoin="round" stroke-miterlimit="10" d="
		M4.572,4.003c0,0-1.035-1.708-1.323-1.541"/>
	
		<path fill="none" stroke="#8E0923" stroke-width="0.9416" stroke-linecap="round" stroke-linejoin="round" stroke-miterlimit="10" d="
		M3.446,5.937c0,0-2.217-0.14-2.304,0.184"/>
	
		<line fill="none" stroke="#8E0923" stroke-width="0.9416" stroke-linecap="round" stroke-linejoin="round" stroke-miterlimit="10" x1="3.031" y1="8.395" x2="1.043" y2="9.322"/>
	
		<path fill="none" stroke="#8E0923" stroke-width="0.9416" stroke-linecap="round" stroke-linejoin="round" stroke-miterlimit="10" d="
		M3.831,10.965c0,0-1.048,0.609-1.17,1.063"/>
	
		<path fill="none" stroke="#8E0923" stroke-width="0.9416" stroke-linecap="round" stroke-linejoin="round" stroke-miterlimit="10" d="
		M5.562,12.099c0,0-0.817,1.487-0.878,1.714"/>
	
		<path fill="none" stroke="#8E0923" stroke-width="0.9416" stroke-linecap="round" stroke-linejoin="round" stroke-miterlimit="10" d="
		M8.523,12.77c0,0-0.112,1.763-0.046,1.876"/>
	
		<path fill="none" stroke="#8E0923" stroke-width="0.9416" stroke-linecap="round" stroke-linejoin="round" stroke-miterlimit="10" d="
		M10.87,11.429c0,0,0.946,1.64,1.143,1.979"/>
	
		<line fill="none" stroke="#8E0923" stroke-linecap="round" stroke-linejoin="round" stroke-miterlimit="10" x1="11.624" y1="9.503" x2="14.522" y2="10.279"/>
	
		<line fill="none" stroke="#8E0923" stroke-width="0.9416" stroke-linecap="round" stroke-linejoin="round" stroke-miterlimit="10" x1="12.562" y1="6.139" x2="14.931" y2="5.59"/>
	
		<path fill="none" stroke="#8E0923" stroke-width="0.9416" stroke-linecap="round" stroke-linejoin="round" stroke-miterlimit="10" d="
		M11.354,3.902c0,0,1.473-1.457,1.653-1.561"/>
	
		<line fill="none" stroke="#8E0923" stroke-width="0.9416" stroke-linecap="round" stroke-linejoin="round" stroke-miterlimit="10" x1="9.106" y1="2.629" x2="9.213" y2="0.77"/>
</g>
</svg>
