<?xml version="1.0" encoding="utf-8"?>
<!-- Generator: Adobe Illustrator 16.0.0, SVG Export Plug-In . SVG Version: 6.00 Build 0)  -->
<!DOCTYPE svg PUBLIC "-//W3C//DTD SVG 1.1//EN" "http://www.w3.org/Graphics/SVG/1.1/DTD/svg11.dtd">
<svg version="1.1" id="Layer_1" xmlns="http://www.w3.org/2000/svg" xmlns:xlink="http://www.w3.org/1999/xlink" x="0px" y="0px"
	 width="16px" height="16px" viewBox="0 0 16 16" enable-background="new 0 0 16 16" xml:space="preserve">
<g>
	<path fill="#8E0923" d="M9.648,2.11c0,0,2.256,1.334,2.961,2.168c0.706,0.837,0.961,2.163,0.895,2.935
		c-0.064,0.771,0.084,2.866-1.939,4.572c-2.023,1.708-4.337,1.103-4.337,1.103s-1.566-0.337-2.435-1.185
		c-0.867-0.851-1.746-1.537-1.93-2.286c-0.181-0.753-1.118-4.63,2.022-6.529C8.027,0.993,9.648,2.11,9.648,2.11z"/>
	<g>
		<path fill="#F7931E" d="M10.641,7.074c-0.07-0.194,0.03-0.411,0.226-0.483c0.196-0.068,0.413,0.032,0.485,0.226
			c0.071,0.197-0.029,0.415-0.225,0.487C10.93,7.374,10.712,7.273,10.641,7.074z"/>
		<circle fill="#F7931E" cx="10.357" cy="7.18" r="0.378"/>
		<circle fill="#F7931E" cx="10.589" cy="7.819" r="0.379"/>
		<circle fill="#F7931E" cx="10.821" cy="8.459" r="0.378"/>
		<circle fill="#F7931E" cx="10.128" cy="8.71" r="0.378"/>
	</g>
	<g>
		<circle fill="#F7931E" cx="8.667" cy="10.051" r="0.378"/>
		<circle fill="#F7931E" cx="9.049" cy="10.614" r="0.378"/>
		<path fill="#F7931E" d="M9.825,10.544c-0.173,0.117-0.409,0.074-0.527-0.1c-0.116-0.174-0.07-0.408,0.103-0.523
			c0.17-0.117,0.408-0.074,0.523,0.099C10.044,10.191,9.996,10.429,9.825,10.544z"/>
	</g>
	<g>
		<circle fill="#F7931E" cx="8.922" cy="7.735" r="0.378"/>
		<circle fill="#F7931E" cx="8.355" cy="7.359" r="0.377"/>
		<circle fill="#F7931E" cx="7.979" cy="7.924" r="0.378"/>
	</g>
	<g>
		<circle fill="#F7931E" cx="7.258" cy="9.424" r="0.379"/>
		<path fill="#F7931E" d="M6.36,9.986C6.249,9.81,6.304,9.576,6.479,9.465c0.178-0.11,0.409-0.059,0.52,0.119
			c0.113,0.18,0.059,0.413-0.118,0.521C6.703,10.216,6.472,10.163,6.36,9.986z"/>
		<circle fill="#F7931E" cx="7.04" cy="10.361" r="0.377"/>
	</g>
	<g>
		<circle fill="#F7931E" cx="9.907" cy="5.4" r="0.378"/>
		<circle fill="#F7931E" cx="9.256" cy="5.199" r="0.378"/>
		<circle fill="#F7931E" cx="9.056" cy="5.85" r="0.378"/>
	</g>
	<g>
		<path fill="#F7931E" d="M6.868,5.093C6.77,4.908,6.839,4.681,7.025,4.582c0.182-0.099,0.411-0.029,0.513,0.153
			c0.095,0.184,0.028,0.416-0.157,0.512C7.198,5.347,6.967,5.277,6.868,5.093z"/>
		<circle fill="#F7931E" cx="6.604" cy="5.237" r="0.378"/>
		<circle fill="#F7931E" cx="6.925" cy="5.836" r="0.376"/>
		<path fill="#F7931E" d="M6.914,6.612c-0.099-0.182-0.029-0.41,0.154-0.51c0.183-0.099,0.413-0.03,0.512,0.155
			C7.682,6.44,7.61,6.67,7.428,6.766C7.24,6.868,7.013,6.797,6.914,6.612z"/>
	</g>
	<g>
		<path fill="#F7931E" d="M5.349,8.573c-0.189,0.08-0.282,0.303-0.203,0.495c0.08,0.193,0.3,0.285,0.492,0.201
			c0.196-0.075,0.287-0.298,0.208-0.491C5.764,8.584,5.545,8.494,5.349,8.573z"/>
		<path fill="#F7931E" d="M5.089,7.945c-0.192,0.08-0.282,0.301-0.206,0.493c0.083,0.193,0.304,0.286,0.496,0.206
			c0.194-0.083,0.285-0.301,0.205-0.493C5.504,7.958,5.283,7.867,5.089,7.945z"/>
		<path fill="#F7931E" d="M5.72,7.686C5.525,7.764,5.435,7.987,5.515,8.178c0.08,0.193,0.3,0.284,0.494,0.206
			C6.202,8.302,6.291,8.083,6.215,7.89C6.133,7.698,5.913,7.605,5.72,7.686z"/>
		<path fill="#F7931E" d="M6.348,7.425c-0.195,0.081-0.285,0.3-0.204,0.495c0.08,0.191,0.3,0.282,0.492,0.204
			C6.829,8.042,6.921,7.822,6.842,7.63C6.763,7.438,6.542,7.345,6.348,7.425z"/>
	</g>
	
		<path fill="none" stroke="#8E0923" stroke-width="0.9416" stroke-linecap="round" stroke-linejoin="round" stroke-miterlimit="10" d="
		M12.874,8.918c0,0,0.633,0.73,1.769,0.827"/>
	
		<path fill="none" stroke="#8E0923" stroke-width="0.9416" stroke-linecap="round" stroke-linejoin="round" stroke-miterlimit="10" d="
		M12.994,6.789c0,0,1.991,0.126,2.021-0.205"/>
	
		<path fill="none" stroke="#8E0923" stroke-width="0.9416" stroke-linecap="round" stroke-linejoin="round" stroke-miterlimit="10" d="
		M12.051,4.76c0,0,1.381-1.74,1.166-1.995"/>
	
		<line fill="none" stroke="#8E0923" stroke-width="0.9416" stroke-linecap="round" stroke-linejoin="round" stroke-miterlimit="10" x1="10.269" y1="3.013" x2="10.646" y2="0.851"/>
	
		<path fill="none" stroke="#8E0923" stroke-width="0.9416" stroke-linecap="round" stroke-linejoin="round" stroke-miterlimit="10" d="
		M7.704,2.202c0,0,0.576-1.035,0.273-1.394"/>
	
		<path fill="none" stroke="#8E0923" stroke-width="0.9416" stroke-linecap="round" stroke-linejoin="round" stroke-miterlimit="10" d="
		M5.784,2.975c0,0-0.754-1.522-0.904-1.702"/>
	
		<path fill="none" stroke="#8E0923" stroke-width="0.9416" stroke-linecap="round" stroke-linejoin="round" stroke-miterlimit="10" d="
		M3.541,5.021c0,0-1.382-1.1-1.513-1.11"/>
	
		<path fill="none" stroke="#8E0923" stroke-width="0.9416" stroke-linecap="round" stroke-linejoin="round" stroke-miterlimit="10" d="
		M3.301,7.712c0,0-1.886-0.159-2.276-0.192"/>
	
		<line fill="none" stroke="#8E0923" stroke-linecap="round" stroke-linejoin="round" stroke-miterlimit="10" x1="4.451" y1="9.431" x2="2.157" y2="11.368"/>
	
		<line fill="none" stroke="#8E0923" stroke-width="0.9416" stroke-linecap="round" stroke-linejoin="round" stroke-miterlimit="10" x1="6.674" y1="12.124" x2="5.771" y2="14.382"/>
	
		<path fill="none" stroke="#8E0923" stroke-width="0.9416" stroke-linecap="round" stroke-linejoin="round" stroke-miterlimit="10" d="
		M9.2,12.41c0,0,0.355,2.043,0.338,2.248"/>
	
		<line fill="none" stroke="#8E0923" stroke-width="0.9416" stroke-linecap="round" stroke-linejoin="round" stroke-miterlimit="10" x1="11.53" y1="11.296" x2="12.996" y2="12.445"/>
</g>
</svg>
