<?xml version="1.0" encoding="utf-8"?>
<!-- Generator: Adobe Illustrator 16.0.0, SVG Export Plug-In . SVG Version: 6.00 Build 0)  -->
<!DOCTYPE svg PUBLIC "-//W3C//DTD SVG 1.1//EN" "http://www.w3.org/Graphics/SVG/1.1/DTD/svg11.dtd">
<svg version="1.1" id="Layer_1" xmlns="http://www.w3.org/2000/svg" xmlns:xlink="http://www.w3.org/1999/xlink" x="0px" y="0px"
	 width="16px" height="16px" viewBox="0 0 16 16" enable-background="new 0 0 16 16" xml:space="preserve">
<g>
	<path fill="#8E0923" d="M3.305,10.744c0,0-0.863-2.475-0.863-3.568s0.66-2.273,1.209-2.82C4.196,3.81,5.434,2.112,8.082,2.112
		c2.646,0,4.026,1.956,4.026,1.956s0.978,1.267,1.095,2.475c0.115,1.209,0.345,2.301,0,2.993c-0.346,0.69-2.13,4.258-5.756,3.684
		C3.823,12.644,3.305,10.744,3.305,10.744z"/>
	<g>
		<circle fill="#F7931E" cx="5.394" cy="6.178" r="0.378"/>
		<circle fill="#F7931E" cx="6.034" cy="6.412" r="0.378"/>
		<circle fill="#F7931E" cx="6.267" cy="5.774" r="0.378"/>
		<circle fill="#F7931E" cx="6.502" cy="5.135" r="0.378"/>
		<circle fill="#F7931E" cx="7.194" cy="5.39" r="0.378"/>
	</g>
	<g>
		<circle fill="#F7931E" cx="9.178" cy="5.307" r="0.378"/>
		<circle fill="#F7931E" cx="9.248" cy="4.63" r="0.378"/>
		<circle fill="#F7931E" cx="8.571" cy="4.559" r="0.378"/>
	</g>
	<g>
		<circle fill="#F7931E" cx="7.488" cy="6.913" r="0.378"/>
		<circle fill="#F7931E" cx="7.678" cy="7.565" r="0.377"/>
		<circle fill="#F7931E" cx="8.331" cy="7.376" r="0.378"/>
	</g>
	<g>
		<circle fill="#F7931E" cx="9.849" cy="6.696" r="0.378"/>
		<circle fill="#F7931E" cx="10.524" cy="6.792" r="0.378"/>
		<circle fill="#F7931E" cx="10.62" cy="6.119" r="0.378"/>
	</g>
	<g>
		<circle fill="#F7931E" cx="5.229" cy="8.062" r="0.378"/>
		<circle fill="#F7931E" cx="5.597" cy="8.635" r="0.377"/>
		<circle fill="#F7931E" cx="6.169" cy="8.266" r="0.379"/>
	</g>
	<g>
		<circle fill="#F7931E" cx="6.983" cy="10.178" r="0.379"/>
		<circle fill="#F7931E" cx="7.649" cy="10.318" r="0.377"/>
		<circle fill="#F7931E" cx="7.79" cy="9.652" r="0.378"/>
		<circle fill="#F7931E" cx="7.929" cy="8.987" r="0.378"/>
	</g>
	<g>
		<circle fill="#F7931E" cx="10.874" cy="8.216" r="0.378"/>
		<circle fill="#F7931E" cx="10.667" cy="8.864" r="0.378"/>
		<circle fill="#F7931E" cx="10.019" cy="8.656" r="0.379"/>
		<circle fill="#F7931E" cx="9.37" cy="8.45" r="0.378"/>
	</g>
	
		<path fill="none" stroke="#8E0923" stroke-width="0.9416" stroke-linecap="round" stroke-linejoin="round" stroke-miterlimit="10" d="
		M5.229,3.459c0,0-0.01-0.966-0.815-1.771"/>
	
		<path fill="none" stroke="#8E0923" stroke-width="0.9416" stroke-linecap="round" stroke-linejoin="round" stroke-miterlimit="10" d="
		M3.766,5.011c0,0-1.441-1.381-1.677-1.146"/>
	
		<path fill="none" stroke="#8E0923" stroke-width="0.9416" stroke-linecap="round" stroke-linejoin="round" stroke-miterlimit="10" d="
		M3.178,7.17C3.178,7.17,1,7.608,1,7.943"/>
	
		<line fill="none" stroke="#8E0923" stroke-width="0.9416" stroke-linecap="round" stroke-linejoin="round" stroke-miterlimit="10" x1="3.413" y1="9.652" x2="1.732" y2="11.062"/>
	
		<path fill="none" stroke="#8E0923" stroke-width="0.9416" stroke-linecap="round" stroke-linejoin="round" stroke-miterlimit="10" d="
		M4.851,11.928c0,0-1.367,0.664-1.367,1.135"/>
	
		<path fill="none" stroke="#8E0923" stroke-width="0.9416" stroke-linecap="round" stroke-linejoin="round" stroke-miterlimit="10" d="
		M6.816,12.575c0,0-0.405,1.647-0.405,1.883"/>
	
		<path fill="none" stroke="#8E0923" stroke-width="0.9416" stroke-linecap="round" stroke-linejoin="round" stroke-miterlimit="10" d="
		M9.85,12.457c0,0,0.348,1.732,0.44,1.824"/>
	
		<path fill="none" stroke="#8E0923" stroke-width="0.9416" stroke-linecap="round" stroke-linejoin="round" stroke-miterlimit="10" d="
		M11.77,10.556c0,0,1.339,1.339,1.615,1.615"/>
	
		<line fill="none" stroke="#8E0923" stroke-linecap="round" stroke-linejoin="round" stroke-miterlimit="10" x1="12" y1="8.5" x2="15" y2="8.5"/>
	
		<line fill="none" stroke="#8E0923" stroke-width="0.9416" stroke-linecap="round" stroke-linejoin="round" stroke-miterlimit="10" x1="12.035" y1="5.008" x2="14.182" y2="3.865"/>
	
		<path fill="none" stroke="#8E0923" stroke-width="0.9416" stroke-linecap="round" stroke-linejoin="round" stroke-miterlimit="10" d="
		M10.29,3.159c0,0,1.046-1.788,1.193-1.935"/>
	
		<line fill="none" stroke="#8E0923" stroke-width="0.9416" stroke-linecap="round" stroke-linejoin="round" stroke-miterlimit="10" x1="7.79" y1="2.512" x2="7.412" y2="0.688"/>
</g>
</svg>
