<?xml version="1.0" encoding="utf-8"?>
<!-- Generator: Adobe Illustrator 16.0.0, SVG Export Plug-In . SVG Version: 6.00 Build 0)  -->
<!DOCTYPE svg PUBLIC "-//W3C//DTD SVG 1.1//EN" "http://www.w3.org/Graphics/SVG/1.1/DTD/svg11.dtd">
<svg version="1.1" id="Layer_1" xmlns="http://www.w3.org/2000/svg" xmlns:xlink="http://www.w3.org/1999/xlink" x="0px" y="0px"
	 width="16px" height="16px" viewBox="0 0 16 16" enable-background="new 0 0 16 16" xml:space="preserve">
<g>
	<path fill="#0C7591" d="M2.923,5.19c0,0,1.677-2.014,2.613-2.577c0.938-0.563,2.289-0.604,3.04-0.416
		c0.751,0.188,2.843,0.374,4.205,2.645c1.363,2.269,0.396,4.458,0.396,4.458s-0.582,1.491-1.558,2.214
		c-0.979,0.721-1.797,1.479-2.566,1.54c-0.771,0.059-4.747,0.365-6.121-3.039C1.562,6.613,2.923,5.19,2.923,5.19z"/>
	<g>
		<circle fill="#79D3F2" cx="7.911" cy="4.631" r="0.378"/>
		<circle fill="#79D3F2" cx="8.041" cy="5.3" r="0.379"/>
		<circle fill="#79D3F2" cx="8.708" cy="5.172" r="0.378"/>
		<circle fill="#79D3F2" cx="9.377" cy="5.045" r="0.378"/>
		<circle fill="#79D3F2" cx="9.515" cy="5.769" r="0.378"/>
	</g>
	<g>
		<circle fill="#79D3F2" cx="10.606" cy="7.427" r="0.378"/>
		<circle fill="#79D3F2" cx="11.223" cy="7.138" r="0.378"/>
		<circle fill="#79D3F2" cx="10.935" cy="6.521" r="0.378"/>
	</g>
	<g>
		<circle fill="#79D3F2" cx="8.36" cy="6.805" r="0.378"/>
		<circle fill="#79D3F2" cx="7.899" cy="7.304" r="0.377"/>
		<circle fill="#79D3F2" cx="8.396" cy="7.766" r="0.378"/>
	</g>
	<g>
		<circle fill="#79D3F2" cx="9.762" cy="8.717" r="0.379"/>
		<circle fill="#79D3F2" cx="10.026" cy="9.345" r="0.378"/>
		<circle fill="#79D3F2" cx="10.652" cy="9.081" r="0.378"/>
	</g>
	<g>
		<circle fill="#79D3F2" cx="6.212" cy="5.459" r="0.378"/>
		<circle fill="#79D3F2" cx="5.91" cy="6.07" r="0.377"/>
		<circle fill="#79D3F2" cx="6.521" cy="6.371" r="0.378"/>
	</g>
	<g>
		<path fill="#79D3F2" d="M5.424,8.411C5.227,8.479,5.012,8.374,4.944,8.175C4.876,7.98,4.981,7.764,5.177,7.693
			C5.374,7.627,5.592,7.732,5.658,7.93C5.728,8.125,5.622,8.343,5.424,8.411z"/>
		<circle fill="#79D3F2" cx="5.524" cy="8.696" r="0.378"/>
		<circle fill="#79D3F2" cx="6.167" cy="8.473" r="0.377"/>
		<path fill="#79D3F2" d="M6.932,8.607c-0.195,0.068-0.41-0.036-0.479-0.233C6.384,8.178,6.488,7.962,6.687,7.894
			C6.883,7.824,7.1,7.93,7.165,8.126C7.235,8.326,7.13,8.541,6.932,8.607z"/>
	</g>
	<g>
		<path fill="#79D3F2" d="M8.617,10.466c0.049,0.201,0.254,0.327,0.456,0.279c0.204-0.048,0.329-0.251,0.279-0.453
			c-0.045-0.206-0.25-0.331-0.453-0.283C8.695,10.058,8.571,10.26,8.617,10.466z"/>
		<circle fill="#79D3F2" cx="8.324" cy="10.535" r="0.378"/>
		<circle fill="#79D3F2" cx="8.168" cy="9.872" r="0.378"/>
		<path fill="#79D3F2" d="M7.644,9.296c0.049,0.206,0.251,0.33,0.455,0.281c0.202-0.049,0.327-0.251,0.28-0.454
			C8.33,8.92,8.127,8.793,7.925,8.841C7.723,8.89,7.595,9.092,7.644,9.296z"/>
	</g>
	
		<path fill="none" stroke="#0C7591" stroke-width="0.9416" stroke-linecap="round" stroke-linejoin="round" stroke-miterlimit="10" d="
		M10.158,3.091c0,0,0.822-0.507,1.098-1.613"/>
	
		<path fill="none" stroke="#0C7591" stroke-width="0.9416" stroke-linecap="round" stroke-linejoin="round" stroke-miterlimit="10" d="
		M8.074,2.634c0,0,0.442-1.946,0.12-2.027"/>
	
		<path fill="none" stroke="#0C7591" stroke-width="0.9416" stroke-linecap="round" stroke-linejoin="round" stroke-miterlimit="10" d="
		M5.921,3.242c0,0-1.496-1.641-1.783-1.469"/>
	
		<line fill="none" stroke="#0C7591" stroke-width="0.9416" stroke-linecap="round" stroke-linejoin="round" stroke-miterlimit="10" x1="3.913" y1="4.721" x2="1.84" y2="4.005"/>
	
		<path fill="none" stroke="#0C7591" stroke-width="0.9416" stroke-linecap="round" stroke-linejoin="round" stroke-miterlimit="10" d="
		M2.703,7.125c0,0-0.929-0.734-1.332-0.492"/>
	
		<path fill="none" stroke="#0C7591" stroke-width="0.9416" stroke-linecap="round" stroke-linejoin="round" stroke-miterlimit="10" d="
		M3.16,9.144c0,0-1.622,0.501-1.823,0.621"/>
	
		<path fill="none" stroke="#0C7591" stroke-width="0.9416" stroke-linecap="round" stroke-linejoin="round" stroke-miterlimit="10" d="
		M4.822,11.685c0,0-1.306,1.188-1.337,1.315"/>
	
		<path fill="none" stroke="#0C7591" stroke-width="0.9416" stroke-linecap="round" stroke-linejoin="round" stroke-miterlimit="10" d="
		M7.441,12.35c0,0-0.459,1.837-0.553,2.218"/>
	
		<line fill="none" stroke="#0C7591" stroke-linecap="round" stroke-linejoin="round" stroke-miterlimit="10" x1="9.321" y1="11.489" x2="10.867" y2="14.062"/>
	
		<line fill="none" stroke="#0C7591" stroke-width="0.9416" stroke-linecap="round" stroke-linejoin="round" stroke-miterlimit="10" x1="12.334" y1="9.724" x2="14.419" y2="10.976"/>
	
		<path fill="none" stroke="#0C7591" stroke-width="0.9416" stroke-linecap="round" stroke-linejoin="round" stroke-miterlimit="10" d="
		M13.02,7.275c0,0,2.072-0.024,2.273,0.026"/>
	
		<line fill="none" stroke="#0C7591" stroke-width="0.9416" stroke-linecap="round" stroke-linejoin="round" stroke-miterlimit="10" x1="12.29" y1="4.798" x2="13.658" y2="3.535"/>
</g>
</svg>
