<?xml version="1.0" encoding="utf-8"?>
<!-- Generator: Adobe Illustrator 16.0.0, SVG Export Plug-In . SVG Version: 6.00 Build 0)  -->
<!DOCTYPE svg PUBLIC "-//W3C//DTD SVG 1.1//EN" "http://www.w3.org/Graphics/SVG/1.1/DTD/svg11.dtd">
<svg version="1.1" id="Layer_1" xmlns="http://www.w3.org/2000/svg" xmlns:xlink="http://www.w3.org/1999/xlink" x="0px" y="0px"
	 width="16px" height="16px" viewBox="0 0 16 16" enable-background="new 0 0 16 16" xml:space="preserve">
<g>
	<path fill="#0C7591" d="M3.866,3.711c0,0,2.194-1.432,3.255-1.695c1.062-0.262,2.365,0.096,3.028,0.497
		c0.662,0.4,2.606,1.193,3.241,3.764c0.636,2.569-0.932,4.377-0.932,4.377s-0.995,1.255-2.14,1.658
		c-1.147,0.401-2.152,0.885-2.905,0.718c-0.754-0.171-4.646-1.047-4.958-4.705C2.146,4.67,3.866,3.711,3.866,3.711z"/>
	<g>
		<circle fill="#79D3F2" cx="8.798" cy="4.643" r="0.378"/>
		<circle fill="#79D3F2" cx="8.726" cy="5.32" r="0.378"/>
		<circle fill="#79D3F2" cx="9.401" cy="5.395" r="0.378"/>
		<circle fill="#79D3F2" cx="10.078" cy="5.47" r="0.378"/>
		<circle fill="#79D3F2" cx="9.996" cy="6.202" r="0.378"/>
	</g>
	<g>
		<circle fill="#79D3F2" cx="10.552" cy="8.108" r="0.378"/>
		<circle fill="#79D3F2" cx="11.226" cy="8.013" r="0.378"/>
		<circle fill="#79D3F2" cx="11.133" cy="7.339" r="0.378"/>
	</g>
	<g>
		<circle fill="#79D3F2" cx="8.588" cy="6.852" r="0.378"/>
		<circle fill="#79D3F2" cx="8" cy="7.194" r="0.377"/>
		<circle fill="#79D3F2" cx="8.34" cy="7.782" r="0.378"/>
	</g>
	<g>
		<circle fill="#79D3F2" cx="9.366" cy="9.093" r="0.379"/>
		<circle fill="#79D3F2" cx="9.434" cy="9.771" r="0.377"/>
		<circle fill="#79D3F2" cx="10.11" cy="9.702" r="0.378"/>
	</g>
	<g>
		<circle fill="#79D3F2" cx="6.93" cy="4.935" r="0.378"/>
		<circle fill="#79D3F2" cx="6.462" cy="5.43" r="0.378"/>
		<circle fill="#79D3F2" cx="6.958" cy="5.897" r="0.378"/>
	</g>
	<g>
		<path fill="#79D3F2" d="M5.31,7.524C5.101,7.531,4.927,7.368,4.921,7.158C4.912,6.952,5.077,6.776,5.284,6.766
			C5.492,6.761,5.67,6.925,5.675,7.133C5.684,7.341,5.519,7.518,5.31,7.524z"/>
		<circle fill="#79D3F2" cx="5.321" cy="7.826" r="0.378"/>
		<path fill="#79D3F2" d="M6.015,8.179c-0.21,0.01-0.384-0.154-0.393-0.363c-0.008-0.208,0.156-0.385,0.365-0.39
			C6.195,7.417,6.371,7.582,6.381,7.79C6.386,7.999,6.224,8.174,6.015,8.179z"/>
		<path fill="#79D3F2" d="M6.692,8.156C6.486,8.164,6.312,8,6.303,7.792C6.295,7.584,6.459,7.409,6.668,7.401
			c0.209-0.009,0.385,0.156,0.39,0.363C7.065,7.976,6.902,8.15,6.692,8.156z"/>
	</g>
	<g>
		<path fill="#79D3F2" d="M7.758,10.428c-0.013,0.206,0.146,0.387,0.354,0.4c0.209,0.015,0.389-0.143,0.4-0.351
			c0.018-0.21-0.142-0.39-0.35-0.404C7.952,10.061,7.774,10.217,7.758,10.428z"/>
		<circle fill="#79D3F2" cx="7.457" cy="10.407" r="0.378"/>
		<circle fill="#79D3F2" cx="7.503" cy="9.728" r="0.378"/>
		<circle fill="#79D3F2" cx="7.548" cy="9.049" r="0.378"/>
	</g>
	
		<path fill="none" stroke="#0C7591" stroke-width="0.9416" stroke-linecap="round" stroke-linejoin="round" stroke-miterlimit="10" d="
		M11.398,3.832c0,0,0.936-0.243,1.523-1.219"/>
	
		<path fill="none" stroke="#0C7591" stroke-width="0.9416" stroke-linecap="round" stroke-linejoin="round" stroke-miterlimit="10" d="
		M9.541,2.782c0,0,0.995-1.73,0.711-1.902"/>
	
		<path fill="none" stroke="#0C7591" stroke-width="0.9416" stroke-linecap="round" stroke-linejoin="round" stroke-miterlimit="10" d="
		M7.305,2.73c0,0-0.948-2.008-1.273-1.928"/>
	
		<line fill="none" stroke="#0C7591" stroke-width="0.9416" stroke-linecap="round" stroke-linejoin="round" stroke-miterlimit="10" x1="4.95" y1="3.554" x2="3.179" y2="2.26"/>
	
		<path fill="none" stroke="#0C7591" stroke-width="0.9416" stroke-linecap="round" stroke-linejoin="round" stroke-miterlimit="10" d="
		M3.087,5.496c0,0-0.672-0.975-1.128-0.862"/>
	
		<path fill="none" stroke="#0C7591" stroke-width="0.9416" stroke-linecap="round" stroke-linejoin="round" stroke-miterlimit="10" d="
		M2.931,7.559c0,0-1.698,0.002-1.926,0.058"/>
	
		<path fill="none" stroke="#0C7591" stroke-width="0.9416" stroke-linecap="round" stroke-linejoin="round" stroke-miterlimit="10" d="
		M3.772,10.477c0,0-1.598,0.752-1.665,0.864"/>
	
		<path fill="none" stroke="#0C7591" stroke-width="0.9416" stroke-linecap="round" stroke-linejoin="round" stroke-miterlimit="10" d="
		M6.08,11.883c0,0-0.979,1.62-1.181,1.957"/>
	
		<line fill="none" stroke="#0C7591" stroke-linecap="round" stroke-linejoin="round" stroke-miterlimit="10" x1="8.13" y1="11.612" x2="8.851" y2="14.526"/>
	
		<line fill="none" stroke="#0C7591" stroke-width="0.9416" stroke-linecap="round" stroke-linejoin="round" stroke-miterlimit="10" x1="11.528" y1="10.811" x2="13.153" y2="12.62"/>
	
		<path fill="none" stroke="#0C7591" stroke-width="0.9416" stroke-linecap="round" stroke-linejoin="round" stroke-miterlimit="10" d="
		M12.903,8.672c0,0,1.988,0.586,2.165,0.693"/>
	
		<line fill="none" stroke="#0C7591" stroke-width="0.9416" stroke-linecap="round" stroke-linejoin="round" stroke-miterlimit="10" x1="12.935" y1="6.09" x2="14.613" y2="5.285"/>
</g>
</svg>
