<?xml version="1.0" encoding="utf-8"?>
<!-- Generator: Adobe Illustrator 16.0.0, SVG Export Plug-In . SVG Version: 6.00 Build 0)  -->
<!DOCTYPE svg PUBLIC "-//W3C//DTD SVG 1.1//EN" "http://www.w3.org/Graphics/SVG/1.1/DTD/svg11.dtd">
<svg version="1.1" id="Layer_1" xmlns="http://www.w3.org/2000/svg" xmlns:xlink="http://www.w3.org/1999/xlink" x="0px" y="0px"
	 width="16px" height="16px" viewBox="0 0 16 16" enable-background="new 0 0 16 16" xml:space="preserve">
<g>
	<path fill="#0C7591" d="M2.45,6.57c0,0,1.114-2.372,1.879-3.153c0.766-0.781,2.062-1.162,2.837-1.168
		c0.773-0.008,2.845-0.355,4.736,1.498c1.891,1.852,1.508,4.215,1.508,4.215s-0.188,1.589-0.949,2.535
		c-0.765,0.944-1.365,1.884-2.095,2.138c-0.73,0.251-4.501,1.551-6.689-1.396C1.491,8.29,2.45,6.57,2.45,6.57z"/>
	<g>
		<circle fill="#79D3F2" cx="7.136" cy="4.771" r="0.378"/>
		<circle fill="#79D3F2" cx="7.43" cy="5.385" r="0.379"/>
		<circle fill="#79D3F2" cx="8.044" cy="5.093" r="0.378"/>
		<circle fill="#79D3F2" cx="8.659" cy="4.801" r="0.378"/>
		<circle fill="#79D3F2" cx="8.975" cy="5.467" r="0.378"/>
	</g>
	<g>
		<circle fill="#79D3F2" cx="10.449" cy="6.797" r="0.378"/>
		<circle fill="#79D3F2" cx="10.973" cy="6.362" r="0.378"/>
		<circle fill="#79D3F2" cx="10.539" cy="5.837" r="0.378"/>
	</g>
	<g>
		<circle fill="#79D3F2" cx="8.119" cy="6.761" r="0.378"/>
		<circle fill="#79D3F2" cx="7.798" cy="7.36" r="0.377"/>
		<circle fill="#79D3F2" cx="8.396" cy="7.682" r="0.378"/>
	</g>
	<g>
		<circle fill="#79D3F2" cx="9.958" cy="8.258" r="0.379"/>
		<circle fill="#79D3F2" cx="10.372" cy="8.799" r="0.378"/>
		<circle fill="#79D3F2" cx="10.911" cy="8.385" r="0.378"/>
	</g>
	<g>
		<circle fill="#79D3F2" cx="5.701" cy="6.001" r="0.378"/>
		<circle fill="#79D3F2" cx="5.562" cy="6.668" r="0.377"/>
		<circle fill="#79D3F2" cx="6.23" cy="6.805" r="0.378"/>
	</g>
	<g>
		<path fill="#79D3F2" d="M5.683,9.056C5.509,9.171,5.274,9.124,5.159,8.948C5.044,8.777,5.091,8.541,5.263,8.423
			C5.437,8.31,5.674,8.356,5.788,8.531C5.904,8.703,5.857,8.94,5.683,9.056z"/>
		<circle fill="#79D3F2" cx="5.851" cy="9.306" r="0.377"/>
		<circle fill="#79D3F2" cx="6.417" cy="8.929" r="0.377"/>
		<circle fill="#79D3F2" cx="6.982" cy="8.551" r="0.378"/>
	</g>
	<g>
		<path fill="#79D3F2" d="M9.291,10.238c0.098,0.183,0.328,0.253,0.512,0.155c0.186-0.098,0.255-0.325,0.156-0.509
			c-0.096-0.188-0.326-0.257-0.51-0.159C9.264,9.824,9.194,10.051,9.291,10.238z"/>
		<circle fill="#79D3F2" cx="9.024" cy="10.379" r="0.378"/>
		<circle fill="#79D3F2" cx="8.707" cy="9.777" r="0.378"/>
		<circle fill="#79D3F2" cx="8.388" cy="9.176" r="0.378"/>
	</g>
	
		<path fill="none" stroke="#0C7591" stroke-width="0.9416" stroke-linecap="round" stroke-linejoin="round" stroke-miterlimit="10" d="
		M8.922,2.713c0,0,0.668-0.698,0.655-1.837"/>
	
		<path fill="none" stroke="#0C7591" stroke-width="0.9416" stroke-linecap="round" stroke-linejoin="round" stroke-miterlimit="10" d="
		M6.79,2.797c0,0-0.062-1.995-0.396-1.992"/>
	
		<path fill="none" stroke="#0C7591" stroke-width="0.9416" stroke-linecap="round" stroke-linejoin="round" stroke-miterlimit="10" d="
		M4.859,3.928c0,0-1.861-1.21-2.096-0.971"/>
	
		<line fill="none" stroke="#0C7591" stroke-width="0.9416" stroke-linecap="round" stroke-linejoin="round" stroke-miterlimit="10" x1="3.29" y1="5.866" x2="1.104" y2="5.697"/>
	
		<path fill="none" stroke="#0C7591" stroke-width="0.9416" stroke-linecap="round" stroke-linejoin="round" stroke-miterlimit="10" d="
		M2.726,8.498c0,0-1.084-0.476-1.413-0.14"/>
	
		<path fill="none" stroke="#0C7591" stroke-width="0.9416" stroke-linecap="round" stroke-linejoin="round" stroke-miterlimit="10" d="
		M3.677,10.336c0,0-1.443,0.894-1.607,1.061"/>
	
		<path fill="none" stroke="#0C7591" stroke-width="0.9416" stroke-linecap="round" stroke-linejoin="round" stroke-miterlimit="10" d="
		M5.926,12.375c0,0-0.964,1.479-0.962,1.61"/>
	
		<path fill="none" stroke="#0C7591" stroke-width="0.9416" stroke-linecap="round" stroke-linejoin="round" stroke-miterlimit="10" d="
		M8.628,12.358c0,0,0.02,1.894,0.024,2.285"/>
	
		<line fill="none" stroke="#0C7591" stroke-linecap="round" stroke-linejoin="round" stroke-miterlimit="10" x1="10.23" y1="11.052" x2="12.375" y2="13.151"/>
	
		<line fill="none" stroke="#0C7591" stroke-width="0.9416" stroke-linecap="round" stroke-linejoin="round" stroke-miterlimit="10" x1="12.7" y1="8.583" x2="15.033" y2="9.269"/>
	
		<path fill="none" stroke="#0C7591" stroke-width="0.9416" stroke-linecap="round" stroke-linejoin="round" stroke-miterlimit="10" d="
		M12.746,6.041c0,0,1.999-0.546,2.207-0.548"/>
	
		<line fill="none" stroke="#0C7591" stroke-width="0.9416" stroke-linecap="round" stroke-linejoin="round" stroke-miterlimit="10" x1="11.415" y1="3.828" x2="12.421" y2="2.26"/>
</g>
</svg>
