<?xml version="1.0" encoding="utf-8"?>
<!-- Generator: Adobe Illustrator 16.0.0, SVG Export Plug-In . SVG Version: 6.00 Build 0)  -->
<!DOCTYPE svg PUBLIC "-//W3C//DTD SVG 1.1//EN" "http://www.w3.org/Graphics/SVG/1.1/DTD/svg11.dtd">
<svg version="1.1" id="Layer_1" xmlns="http://www.w3.org/2000/svg" xmlns:xlink="http://www.w3.org/1999/xlink" x="0px" y="0px"
	 width="16px" height="16px" viewBox="0 0 16 16" enable-background="new 0 0 16 16" xml:space="preserve">
<g>
	<path fill="#0C7591" d="M6.592,2.057c0,0,2.62-0.033,3.656,0.314c1.038,0.348,1.945,1.349,2.29,2.042
		c0.346,0.692,1.562,2.404,0.72,4.915c-0.841,2.511-3.133,3.196-3.133,3.196S8.611,13.05,7.43,12.777
		c-1.184-0.275-2.291-0.406-2.837-0.95c-0.546-0.55-3.361-3.375-1.665-6.63C4.626,1.945,6.592,2.057,6.592,2.057z"/>
	<g>
		<path fill="#79D3F2" d="M10.02,5.782c-0.162-0.128-0.188-0.366-0.059-0.53c0.132-0.161,0.369-0.188,0.531-0.059
			c0.163,0.131,0.19,0.37,0.062,0.533C10.422,5.888,10.184,5.916,10.02,5.782z"/>
		<path fill="#79D3F2" d="M9.596,6.316c-0.163-0.132-0.19-0.369-0.061-0.533c0.132-0.163,0.369-0.189,0.533-0.059
			c0.161,0.131,0.188,0.369,0.059,0.533C9.996,6.418,9.759,6.446,9.596,6.316z"/>
		<circle fill="#79D3F2" cx="10.362" cy="6.445" r="0.378"/>
		<circle fill="#79D3F2" cx="10.894" cy="6.871" r="0.378"/>
		<circle fill="#79D3F2" cx="10.432" cy="7.446" r="0.378"/>
	</g>
	<g>
		<circle fill="#79D3F2" cx="9.879" cy="9.352" r="0.378"/>
		<path fill="#79D3F2" d="M10.843,9.791c-0.087,0.19-0.31,0.274-0.499,0.188c-0.189-0.09-0.273-0.312-0.188-0.502
			c0.087-0.19,0.312-0.274,0.501-0.188C10.848,9.379,10.931,9.601,10.843,9.791z"/>
		<circle fill="#79D3F2" cx="10.782" cy="9.015" r="0.377"/>
	</g>
	<g>
		<circle fill="#79D3F2" cx="8.895" cy="7.24" r="0.378"/>
		<circle fill="#79D3F2" cx="8.215" cy="7.213" r="0.377"/>
		<circle fill="#79D3F2" cx="8.187" cy="7.892" r="0.378"/>
	</g>
	<g>
		<circle fill="#79D3F2" cx="8.35" cy="9.548" r="0.379"/>
		<path fill="#79D3F2" d="M7.876,10.495c-0.188-0.094-0.262-0.321-0.169-0.508c0.094-0.187,0.319-0.263,0.506-0.168
			c0.189,0.095,0.264,0.322,0.17,0.507C8.288,10.513,8.062,10.589,7.876,10.495z"/>
		<circle fill="#79D3F2" cx="8.651" cy="10.461" r="0.378"/>
	</g>
	<g>
		<circle fill="#79D3F2" cx="8.522" cy="4.733" r="0.378"/>
		<circle fill="#79D3F2" cx="7.862" cy="4.9" r="0.377"/>
		<circle fill="#79D3F2" cx="8.03" cy="5.56" r="0.378"/>
	</g>
	<g>
		<path fill="#79D3F2" d="M5.767,6.05C5.586,5.944,5.527,5.713,5.635,5.532c0.104-0.179,0.337-0.238,0.518-0.136
			c0.178,0.107,0.24,0.341,0.132,0.519C6.181,6.096,5.946,6.157,5.767,6.05z"/>
		<circle fill="#79D3F2" cx="5.615" cy="6.311" r="0.378"/>
		<circle fill="#79D3F2" cx="6.201" cy="6.656" r="0.377"/>
		<path fill="#79D3F2" d="M6.596,7.325C6.417,7.221,6.357,6.989,6.462,6.808c0.104-0.179,0.337-0.239,0.518-0.133
			c0.182,0.104,0.24,0.337,0.135,0.515C7.007,7.373,6.775,7.432,6.596,7.325z"/>
	</g>
	<g>
		<path fill="#79D3F2" d="M6.277,9.813c-0.121,0.167-0.084,0.405,0.084,0.528c0.169,0.124,0.404,0.088,0.525-0.083
			c0.128-0.167,0.09-0.404-0.078-0.528C6.638,9.607,6.404,9.644,6.277,9.813z"/>
		<circle fill="#79D3F2" cx="6.034" cy="9.635" r="0.378"/>
		<circle fill="#79D3F2" cx="6.438" cy="9.086" r="0.378"/>
		<circle fill="#79D3F2" cx="6.839" cy="8.537" r="0.378"/>
	</g>
	
		<path fill="none" stroke="#0C7591" stroke-width="0.9416" stroke-linecap="round" stroke-linejoin="round" stroke-miterlimit="10" d="
		M12.886,6.196c0,0,0.92,0.296,1.94-0.212"/>
	
		<path fill="none" stroke="#0C7591" stroke-width="0.9416" stroke-linecap="round" stroke-linejoin="round" stroke-miterlimit="10" d="
		M11.881,4.315c0,0,1.768-0.927,1.62-1.225"/>
	
		<path fill="none" stroke="#0C7591" stroke-width="0.9416" stroke-linecap="round" stroke-linejoin="round" stroke-miterlimit="10" d="
		M10.021,3.072c0,0,0.276-2.204-0.041-2.311"/>
	
		<line fill="none" stroke="#0C7591" stroke-width="0.9416" stroke-linecap="round" stroke-linejoin="round" stroke-miterlimit="10" x1="7.591" y1="2.505" x2="6.789" y2="0.463"/>
	
		<path fill="none" stroke="#0C7591" stroke-width="0.9416" stroke-linecap="round" stroke-linejoin="round" stroke-miterlimit="10" d="
		M4.978,3.146c0,0-0.045-1.184-0.49-1.333"/>
	
		<path fill="none" stroke="#0C7591" stroke-width="0.9416" stroke-linecap="round" stroke-linejoin="round" stroke-miterlimit="10" d="
		M3.739,4.805c0,0-1.435-0.909-1.656-0.984"/>
	
		<path fill="none" stroke="#0C7591" stroke-width="0.9416" stroke-linecap="round" stroke-linejoin="round" stroke-miterlimit="10" d="
		M2.887,7.718c0,0-1.752-0.222-1.869-0.163"/>
	
		<path fill="none" stroke="#0C7591" stroke-width="0.9416" stroke-linecap="round" stroke-linejoin="round" stroke-miterlimit="10" d="
		M4.081,10.143c0,0-1.694,0.844-2.046,1.019"/>
	
		<line fill="none" stroke="#0C7591" stroke-linecap="round" stroke-linejoin="round" stroke-miterlimit="10" x1="5.956" y1="11.013" x2="5.003" y2="13.859"/>
	
		<line fill="none" stroke="#0C7591" stroke-width="0.9416" stroke-linecap="round" stroke-linejoin="round" stroke-miterlimit="10" x1="9.255" y1="12.158" x2="9.657" y2="14.557"/>
	
		<path fill="none" stroke="#0C7591" stroke-width="0.9416" stroke-linecap="round" stroke-linejoin="round" stroke-miterlimit="10" d="
		M11.562,11.09c0,0,1.364,1.561,1.456,1.745"/>
	
		<line fill="none" stroke="#0C7591" stroke-width="0.9416" stroke-linecap="round" stroke-linejoin="round" stroke-miterlimit="10" x1="12.973" y1="8.926" x2="14.822" y2="9.146"/>
</g>
</svg>
