<?xml version="1.0" encoding="utf-8"?>
<!-- Generator: Adobe Illustrator 16.0.0, SVG Export Plug-In . SVG Version: 6.00 Build 0)  -->
<!DOCTYPE svg PUBLIC "-//W3C//DTD SVG 1.1//EN" "http://www.w3.org/Graphics/SVG/1.1/DTD/svg11.dtd">
<svg version="1.1" id="Layer_1" xmlns="http://www.w3.org/2000/svg" xmlns:xlink="http://www.w3.org/1999/xlink" x="0px" y="0px"
	 width="16px" height="16px" viewBox="0 0 16 16" enable-background="new 0 0 16 16" xml:space="preserve">
<g>
	<path fill="#0C7591" d="M2.363,7.928c0,0,0.512-2.57,1.066-3.513s1.723-1.624,2.473-1.816c0.748-0.194,2.676-1.028,4.957,0.316
		c2.281,1.343,2.478,3.729,2.478,3.729s0.199,1.588-0.312,2.688c-0.516,1.101-0.872,2.157-1.52,2.579
		c-0.648,0.419-3.996,2.587-6.829,0.252C1.846,9.828,2.363,7.928,2.363,7.928z"/>
	<g>
		<circle fill="#79D3F2" cx="6.479" cy="5.054" r="0.378"/>
		<circle fill="#79D3F2" cx="6.913" cy="5.58" r="0.378"/>
		<circle fill="#79D3F2" cx="7.438" cy="5.149" r="0.378"/>
		<circle fill="#79D3F2" cx="7.965" cy="4.719" r="0.378"/>
		<circle fill="#79D3F2" cx="8.431" cy="5.289" r="0.378"/>
	</g>
	<g>
		<circle fill="#79D3F2" cx="10.183" cy="6.225" r="0.378"/>
		<circle fill="#79D3F2" cx="10.586" cy="5.677" r="0.378"/>
		<circle fill="#79D3F2" cx="10.039" cy="5.272" r="0.378"/>
	</g>
	<g>
		<circle fill="#79D3F2" cx="7.912" cy="6.75" r="0.378"/>
		<circle fill="#79D3F2" cx="7.745" cy="7.409" r="0.378"/>
		<circle fill="#79D3F2" cx="8.403" cy="7.577" r="0.378"/>
	</g>
	<g>
		<circle fill="#79D3F2" cx="10.056" cy="7.761" r="0.378"/>
		<circle fill="#79D3F2" cx="10.589" cy="8.187" r="0.378"/>
		<circle fill="#79D3F2" cx="11.013" cy="7.656" r="0.378"/>
	</g>
	<g>
		<circle fill="#79D3F2" cx="5.382" cy="6.594" r="0.378"/>
		<circle fill="#79D3F2" cx="5.408" cy="7.275" r="0.377"/>
		<circle fill="#79D3F2" cx="6.089" cy="7.247" r="0.378"/>
	</g>
	<g>
		<path fill="#79D3F2" d="M6.099,9.563c-0.142,0.153-0.38,0.164-0.534,0.021C5.411,9.446,5.4,9.206,5.539,9.051
			c0.142-0.152,0.383-0.164,0.536-0.022C6.229,9.168,6.24,9.409,6.099,9.563z"/>
		<circle fill="#79D3F2" cx="6.323" cy="9.766" r="0.377"/>
		<circle fill="#79D3F2" cx="6.781" cy="9.264" r="0.377"/>
		<circle fill="#79D3F2" cx="7.239" cy="8.761" r="0.378"/>
	</g>
	<g>
		<path fill="#79D3F2" d="M9.886,9.844c0.139,0.154,0.379,0.167,0.534,0.028c0.156-0.14,0.169-0.377,0.029-0.532
			c-0.139-0.158-0.379-0.17-0.533-0.031C9.76,9.448,9.747,9.686,9.886,9.844z"/>
		<circle fill="#79D3F2" cx="9.661" cy="10.045" r="0.378"/>
		<circle fill="#79D3F2" cx="9.208" cy="9.537" r="0.378"/>
		<circle fill="#79D3F2" cx="8.753" cy="9.03" r="0.378"/>
	</g>
	
		<path fill="none" stroke="#0C7591" stroke-width="0.9416" stroke-linecap="round" stroke-linejoin="round" stroke-miterlimit="10" d="
		M7.718,2.628c0,0,0.481-0.838,0.195-1.941"/>
	
		<path fill="none" stroke="#0C7591" stroke-width="0.9416" stroke-linecap="round" stroke-linejoin="round" stroke-miterlimit="10" d="
		M5.669,3.223c0,0-0.54-1.922-0.862-1.839"/>
	
		<path fill="none" stroke="#0C7591" stroke-width="0.9416" stroke-linecap="round" stroke-linejoin="round" stroke-miterlimit="10" d="
		M4.067,4.784c0,0-2.099-0.728-2.269-0.439"/>
	
		<line fill="none" stroke="#0C7591" stroke-width="0.9416" stroke-linecap="round" stroke-linejoin="round" stroke-miterlimit="10" x1="3.01" y1="7.042" x2="0.847" y2="7.404"/>
	
		<path fill="none" stroke="#0C7591" stroke-width="0.9416" stroke-linecap="round" stroke-linejoin="round" stroke-miterlimit="10" d="
		M3.094,9.732c0,0-1.137,0.039-1.376,0.444"/>
	
		<path fill="none" stroke="#0C7591" stroke-width="0.9416" stroke-linecap="round" stroke-linejoin="round" stroke-miterlimit="10" d="
		M4.459,11.288c0,0-1.186,1.215-1.305,1.416"/>
	
		<path fill="none" stroke="#0C7591" stroke-width="0.9416" stroke-linecap="round" stroke-linejoin="round" stroke-miterlimit="10" d="
		M7.133,12.727c0,0-0.58,1.668-0.547,1.795"/>
	
		<path fill="none" stroke="#0C7591" stroke-width="0.9416" stroke-linecap="round" stroke-linejoin="round" stroke-miterlimit="10" d="
		M9.752,12.062c0,0,0.474,1.833,0.572,2.212"/>
	
		<line fill="none" stroke="#0C7591" stroke-linecap="round" stroke-linejoin="round" stroke-miterlimit="10" x1="10.993" y1="10.408" x2="13.579" y2="11.931"/>
	
		<line fill="none" stroke="#0C7591" stroke-width="0.9416" stroke-linecap="round" stroke-linejoin="round" stroke-miterlimit="10" x1="12.797" y1="7.417" x2="15.227" y2="7.522"/>
	
		<path fill="none" stroke="#0C7591" stroke-width="0.9416" stroke-linecap="round" stroke-linejoin="round" stroke-miterlimit="10" d="
		M12.23,4.938c0,0,1.809-1.01,2.011-1.062"/>
	
		<line fill="none" stroke="#0C7591" stroke-width="0.9416" stroke-linecap="round" stroke-linejoin="round" stroke-miterlimit="10" x1="10.406" y1="3.111" x2="11.006" y2="1.348"/>
</g>
</svg>
