<?xml version="1.0" encoding="utf-8"?>
<!-- Generator: Adobe Illustrator 16.0.0, SVG Export Plug-In . SVG Version: 6.00 Build 0)  -->
<!DOCTYPE svg PUBLIC "-//W3C//DTD SVG 1.1//EN" "http://www.w3.org/Graphics/SVG/1.1/DTD/svg11.dtd">
<svg version="1.1" id="Layer_1" xmlns="http://www.w3.org/2000/svg" xmlns:xlink="http://www.w3.org/1999/xlink" x="0px" y="0px"
	 width="16px" height="16px" viewBox="0 0 16 16" enable-background="new 0 0 16 16" xml:space="preserve">
<g>
	<path fill="#0C7591" d="M5.266,2.63c0,0,2.525-0.697,3.616-0.625c1.092,0.073,2.224,0.811,2.733,1.394
		c0.51,0.582,2.12,1.929,1.943,4.571c-0.176,2.642-2.219,3.887-2.219,3.887s-1.33,0.893-2.543,0.929
		c-1.215,0.034-2.319,0.188-2.985-0.199c-0.667-0.393-4.107-2.41-3.293-5.99C3.336,3.021,5.266,2.63,5.266,2.63z"/>
	<g>
		<path fill="#79D3F2" d="M9.526,5.362C9.337,5.279,9.252,5.056,9.335,4.865c0.087-0.189,0.31-0.275,0.499-0.192
			c0.191,0.085,0.278,0.309,0.194,0.5C9.942,5.363,9.719,5.451,9.526,5.362z"/>
		<circle fill="#79D3F2" cx="9.405" cy="5.64" r="0.378"/>
		<circle fill="#79D3F2" cx="10.026" cy="5.917" r="0.378"/>
		<circle fill="#79D3F2" cx="10.648" cy="6.194" r="0.378"/>
		<circle fill="#79D3F2" cx="10.348" cy="6.867" r="0.378"/>
	</g>
	<g>
		<circle fill="#79D3F2" cx="10.297" cy="8.851" r="0.378"/>
		<circle fill="#79D3F2" cx="10.968" cy="8.967" r="0.378"/>
		<circle fill="#79D3F2" cx="11.085" cy="8.296" r="0.378"/>
	</g>
	<g>
		<circle fill="#79D3F2" cx="8.809" cy="7.058" r="0.378"/>
		<circle fill="#79D3F2" cx="8.145" cy="7.205" r="0.377"/>
		<circle fill="#79D3F2" cx="8.29" cy="7.869" r="0.378"/>
	</g>
	<g>
		<circle fill="#79D3F2" cx="8.868" cy="9.429" r="0.379"/>
		<path fill="#79D3F2" d="M8.649,10.466c-0.205-0.044-0.335-0.245-0.292-0.449S8.6,9.682,8.804,9.727
			c0.207,0.043,0.337,0.244,0.293,0.446C9.053,10.378,8.854,10.509,8.649,10.466z"/>
		<circle fill="#79D3F2" cx="9.391" cy="10.236" r="0.378"/>
	</g>
	<g>
		<circle fill="#79D3F2" cx="7.812" cy="4.728" r="0.378"/>
		<circle fill="#79D3F2" cx="7.216" cy="5.057" r="0.377"/>
		<circle fill="#79D3F2" cx="7.546" cy="5.653" r="0.378"/>
	</g>
	<g>
		<path fill="#79D3F2" d="M5.48,6.702C5.279,6.645,5.164,6.437,5.222,6.234c0.055-0.199,0.266-0.316,0.466-0.263
			C5.887,6.03,6.007,6.24,5.947,6.44C5.893,6.641,5.682,6.759,5.48,6.702z"/>
		<circle fill="#79D3F2" cx="5.4" cy="6.993" r="0.377"/>
		<circle fill="#79D3F2" cx="6.055" cy="7.177" r="0.377"/>
		<path fill="#79D3F2" d="M6.606,7.724C6.407,7.668,6.291,7.46,6.346,7.258c0.056-0.2,0.266-0.317,0.467-0.261
			c0.202,0.055,0.318,0.266,0.261,0.464C7.017,7.666,6.808,7.782,6.606,7.724z"/>
	</g>
	<g>
		<path fill="#79D3F2" d="M6.93,10.212c-0.074,0.192,0.022,0.413,0.216,0.489c0.194,0.077,0.413-0.018,0.487-0.213
			c0.081-0.194-0.016-0.414-0.21-0.491C7.227,9.921,7.01,10.016,6.93,10.212z"/>
		<circle fill="#79D3F2" cx="6.65" cy="10.101" r="0.378"/>
		<circle fill="#79D3F2" cx="6.901" cy="9.467" r="0.378"/>
		<circle fill="#79D3F2" cx="7.149" cy="8.834" r="0.378"/>
	</g>
	
		<path fill="none" stroke="#0C7591" stroke-width="0.9416" stroke-linecap="round" stroke-linejoin="round" stroke-miterlimit="10" d="
		M12.404,5.036c0,0,0.965,0.053,1.822-0.698"/>
	
		<path fill="none" stroke="#0C7591" stroke-width="0.9416" stroke-linecap="round" stroke-linejoin="round" stroke-miterlimit="10" d="
		M10.954,3.471c0,0,1.475-1.346,1.256-1.596"/>
	
		<path fill="none" stroke="#0C7591" stroke-width="0.9416" stroke-linecap="round" stroke-linejoin="round" stroke-miterlimit="10" d="
		M8.84,2.741c0,0-0.293-2.202-0.627-2.224"/>
	
		<line fill="none" stroke="#0C7591" stroke-width="0.9416" stroke-linecap="round" stroke-linejoin="round" stroke-miterlimit="10" x1="6.346" y1="2.81" x2="5.052" y2="1.038"/>
	
		<path fill="none" stroke="#0C7591" stroke-width="0.9416" stroke-linecap="round" stroke-linejoin="round" stroke-miterlimit="10" d="
		M3.98,4.093c0,0-0.344-1.133-0.812-1.165"/>
	
		<path fill="none" stroke="#0C7591" stroke-width="0.9416" stroke-linecap="round" stroke-linejoin="round" stroke-miterlimit="10" d="
		M3.204,6.011c0,0-1.618-0.515-1.853-0.531"/>
	
		<path fill="none" stroke="#0C7591" stroke-width="0.9416" stroke-linecap="round" stroke-linejoin="round" stroke-miterlimit="10" d="
		M3.119,9.046c0,0-1.751,0.23-1.85,0.317"/>
	
		<path fill="none" stroke="#0C7591" stroke-width="0.9416" stroke-linecap="round" stroke-linejoin="round" stroke-miterlimit="10" d="
		M4.89,11.088c0,0-1.425,1.246-1.721,1.505"/>
	
		<line fill="none" stroke="#0C7591" stroke-linecap="round" stroke-linejoin="round" stroke-miterlimit="10" x1="6.924" y1="11.453" x2="6.725" y2="14.449"/>
	
		<line fill="none" stroke="#0C7591" stroke-width="0.9416" stroke-linecap="round" stroke-linejoin="round" stroke-miterlimit="10" x1="10.405" y1="11.724" x2="11.403" y2="13.941"/>
	
		<path fill="none" stroke="#0C7591" stroke-width="0.9416" stroke-linecap="round" stroke-linejoin="round" stroke-miterlimit="10" d="
		M12.366,10.104c0,0,1.716,1.163,1.852,1.318"/>
	
		<line fill="none" stroke="#0C7591" stroke-width="0.9416" stroke-linecap="round" stroke-linejoin="round" stroke-miterlimit="10" x1="13.181" y1="7.654" x2="15.025" y2="7.397"/>
</g>
</svg>
