<?xml version="1.0" encoding="utf-8"?>
<!-- Generator: Adobe Illustrator 16.0.0, SVG Export Plug-In . SVG Version: 6.00 Build 0)  -->
<!DOCTYPE svg PUBLIC "-//W3C//DTD SVG 1.1//EN" "http://www.w3.org/Graphics/SVG/1.1/DTD/svg11.dtd">
<svg version="1.1" id="Layer_1" xmlns="http://www.w3.org/2000/svg" xmlns:xlink="http://www.w3.org/1999/xlink" x="0px" y="0px"
	 width="200px" height="200px" viewBox="0 0 200 200" enable-background="new 0 0 200 200" xml:space="preserve">
<g id="Layer_1_1_">
</g>
<g id="Defense_Cell_Wall">
</g>
<g id="Aggression">
</g>
<g id="Speed">
	<g id="Layer_1_3_">
		<g>
			<path fill="#79D3F2" d="M195.808,107.707c-0.005-3-2.77-4.796-6.18-4.014c-2.943,0.674-10.525-3.658-17.062-9.514
				c0.229-1.411,0.466-2.832,0.723-4.271c2.02-11.308-2.384-23.041-4.6-27.997c7.68-5.795,16.193-10.807,18.813-10.998
				c2.879,0.731,6.518-0.941,8.238-3.828c1.769-2.968,0.838-6.097-2.076-6.988c-4.74-1.45-11.668,0.888-21.81,7.35
				c-3.301,2.102-6.331,4.257-8.495,5.851c-4.474-5.433-12.896-12.978-26.852-16.326c0.004-0.113,0.011-0.225,0.003-0.337
				c-0.394-7.897-0.412-17.604,0.131-21.117c0.486-0.668,0.86-1.404,1.076-2.177c0.868-3.099-1.103-5.62-4.397-5.631
				c-2.03-0.007-4.138,0.874-5.783,2.416c-2.131,1.998-4.329,4.063-3.56,25.188c-0.781-0.029-1.563-0.057-2.37-0.06
				c-14.744-0.05-27.193,3.704-37.333,8.54c-0.934-2.261-2.42-5.721-4.185-9.283c-5.844-11.788-9.389-14.016-12.348-14.665
				c-4.82-1.061-9.616-0.311-13.504,2.108c-3.006,1.871-5.201,4.626-6.021,7.555c-0.868,3.1,1.103,5.621,4.397,5.632
				c2.901,0.01,5.864-1.928,7.126-4.506c0.43-0.058,1.133-0.079,2.129,0.111c2.246,1.428,7.08,10.166,10.853,19.517
				c-7.58,4.881-13.172,9.718-16.731,12.358c-4.472,3.315-9.846,8.539-14.586,14.597c-6.177-3.794-16.809-9.006-24.927-6.064
				c-3.388,1.227-6.126,3.63-7.711,6.767c-1.529,3.03-0.302,6.014,2.744,6.665c2.64,0.563,5.77-0.804,7.558-3.145
				c3.065,0.093,9.695,2.903,15.263,6.504c-1.64,3.068-2.969,6.188-3.828,9.255c-1.475,5.268-1.944,13.149-1.972,20.784
				c-0.567,0.358-1.104,0.789-1.589,1.289c-0.071,0.072-7.28,7.426-12.649,5.76c-2.907-0.902-6.708,0.77-8.487,3.736
				c-1.777,2.965-0.861,6.099,2.046,7c1.607,0.5,3.295,0.75,5.04,0.756c4.466,0.016,9.329-1.566,14.324-4.693
				c0.562-0.352,1.104-0.71,1.619-1.066c0.288,6.035,0.676,10.295,0.676,10.295s0.021,1.558,0.821,3.987
				c-11.327,4.319-26.403,13.198-27.509,25.579c-0.243,2.717,1.738,4.632,4.574,4.643c0.35,0,0.711-0.024,1.084-0.088
				c3.398-0.533,6.373-3.44,6.646-6.494c0.618-6.938,16.104-13.137,20.607-14.556c3.646,4.114,9.437,8.517,18.616,12.106
				c-4.919,3.138-9.678,7.168-10.896,11.522c-0.868,3.101,1.1,5.621,4.396,5.634c3.14,0.01,6.353-2.261,7.399-5.151
				c1.203-1.462,6.22-4.691,10.614-6.812c0.682-0.33,1.299-0.742,1.848-1.207c2.331,0.52,4.8,0.992,7.425,1.411
				c11.681,1.86,22.706,0.341,32.767-3.079c1.335,5.354,4.278,13.254,10.494,17.307c0.802,0.522,1.769,0.771,2.789,0.775
				c2.053,0.008,4.33-0.982,5.94-2.768c2.41-2.671,2.41-6.107,0.001-7.682c-3.859-2.516-6.082-8.41-7.172-12.797
				c11.822-6.113,21.812-14.358,29.296-21.623c5.609,4.129,10.488,9.48,10.489,11.652c-0.772,3.037,1.188,5.484,4.437,5.495
				c3.295,0.011,6.671-2.491,7.539-5.591c2.302-8.221-7.552-16.783-13.448-21.049c2.135-2.438,3.731-4.398,4.727-5.62
				c3.771-4.64,5.701-10.778,7.113-17.815c4.794,3.252,10.537,6.059,16.092,6.078c1.16,0.004,2.311-0.113,3.443-0.373
				C193.056,113.77,195.812,110.703,195.808,107.707z"/>
		</g>
		
			<radialGradient id="SVGID_1_" cx="771.8916" cy="703.457" r="56.0547" gradientTransform="matrix(1.0309 0.0035 -0.2714 0.9691 -504.6125 -580.5858)" gradientUnits="userSpaceOnUse">
			<stop  offset="0" style="stop-color:#5757BB"/>
			<stop  offset="0.3472" style="stop-color:#5A5ABD"/>
			<stop  offset="0.5553" style="stop-color:#6262C3"/>
			<stop  offset="0.7268" style="stop-color:#7070CC"/>
			<stop  offset="0.8775" style="stop-color:#8484DA"/>
			<stop  offset="1" style="stop-color:#9B9BEA"/>
		</radialGradient>
		<path fill="url(#SVGID_1_)" stroke="#FFFFFF" stroke-width="0.8636" stroke-miterlimit="10" d="M43.653,133.617
			c0,0-2.213-24.346,0.795-35.088c3.009-10.743,13.169-22.312,20.39-27.664c7.218-5.353,24.821-21.988,52.492-21.894
			c27.672,0.095,36.723,19.369,36.723,19.369s6.743,12.475,4.621,24.353c-2.121,11.877-2.723,22.627-8.232,29.403
			c-5.509,6.771-33.973,41.768-70.284,35.981C43.841,152.295,43.653,133.617,43.653,133.617z"/>
	</g>
	<g id="Layer_2_2_">
		<g>
			<path fill="#79D3F2" d="M70.906,79.726c2.932,0.01,4.682,2.251,3.91,5.006s-3.772,4.98-6.703,4.97
				c-2.932-0.01-4.682-2.251-3.909-5.006C64.976,81.941,67.977,79.716,70.906,79.726z"/>
			<path fill="#79D3F2" d="M79.005,82.852c2.931,0.01,4.681,2.251,3.909,5.005c-0.771,2.755-3.771,4.98-6.702,4.97
				c-2.931-0.01-4.682-2.251-3.91-5.006C73.073,85.066,76.074,82.841,79.005,82.852z"/>
			<path fill="#79D3F2" d="M84.657,74.438c2.93,0.01,4.681,2.251,3.909,5.005s-3.772,4.979-6.702,4.969
				c-2.931-0.01-4.681-2.25-3.908-5.005C78.729,76.652,81.729,74.428,84.657,74.438z"/>
			<path fill="#79D3F2" d="M90.311,66.021c2.933,0.01,4.682,2.251,3.909,5.006c-0.771,2.754-3.771,4.979-6.702,4.969
				c-2.931-0.01-4.682-2.251-3.909-5.005C84.379,68.236,87.381,66.011,90.311,66.021z"/>
			<path fill="#79D3F2" d="M99.083,69.407c2.931,0.01,4.682,2.251,3.91,5.006c-0.772,2.755-3.772,4.98-6.703,4.97
				c-2.931-0.01-4.681-2.251-3.909-5.006C93.153,71.622,96.152,69.397,99.083,69.407z"/>
		</g>
		<g>
			<path fill="#79D3F2" d="M127.221,68.415c2.932,0.01,4.682,2.251,3.909,5.006c-0.771,2.755-3.771,4.98-6.703,4.97
				c-2.93-0.01-4.68-2.251-3.908-5.006C121.291,70.63,124.29,68.405,127.221,68.415z"/>
			<path fill="#79D3F2" d="M130.716,59.489c2.932,0.01,4.682,2.251,3.909,5.006c-0.771,2.754-3.771,4.98-6.702,4.97
				c-2.93-0.01-4.681-2.251-3.909-5.006S127.786,59.479,130.716,59.489z"/>
			<path fill="#79D3F2" d="M121.479,58.522c2.932,0.01,4.683,2.252,3.91,5.006c-0.771,2.755-3.771,4.979-6.703,4.969
				c-2.931-0.01-4.682-2.251-3.909-5.006C115.547,60.737,118.548,58.512,121.479,58.522z"/>
		</g>
		<g>
			<path fill="#79D3F2" d="M97.588,89.52c2.932,0.01,4.682,2.251,3.91,5.006c-0.772,2.755-3.772,4.98-6.703,4.97
				c-2.93-0.01-4.681-2.251-3.909-5.006C91.658,91.735,94.658,89.51,97.588,89.52z"/>
			<path fill="#79D3F2" d="M97.841,98.15c2.931,0.01,4.681,2.251,3.908,5.004c-0.771,2.756-3.771,4.979-6.701,4.969
				s-4.681-2.249-3.909-5.004C91.91,100.365,94.91,98.14,97.841,98.15z"/>
			<path fill="#79D3F2" d="M107.714,95.675c2.931,0.01,4.683,2.251,3.91,5.007c-0.771,2.754-3.773,4.979-6.704,4.969
				c-2.931-0.008-4.681-2.25-3.909-5.006C101.781,97.89,104.783,95.665,107.714,95.675z"/>
		</g>
		<g>
			<path fill="#79D3F2" d="M131.534,86.771c2.931,0.01,4.681,2.251,3.909,5.007c-0.771,2.754-3.772,4.98-6.703,4.97
				c-2.932-0.01-4.683-2.252-3.91-5.006C125.602,88.987,128.604,86.762,131.534,86.771z"/>
			<path fill="#79D3F2" d="M140.632,88.079c2.931,0.01,4.682,2.251,3.909,5.005c-0.771,2.754-3.771,4.979-6.702,4.968
				c-2.93-0.01-4.68-2.251-3.909-5.005C134.701,90.293,137.702,88.069,140.632,88.079z"/>
			<path fill="#79D3F2" d="M144.473,79.197c2.931,0.01,4.682,2.25,3.909,5.005c-0.771,2.754-3.771,4.979-6.702,4.969
				c-2.93-0.01-4.679-2.251-3.906-5.005C138.544,81.412,141.543,79.187,144.473,79.197z"/>
		</g>
		<g>
			<path fill="#79D3F2" d="M61.62,104.586c2.93,0.01,4.681,2.252,3.909,5.006c-0.771,2.756-3.772,4.979-6.702,4.971
				c-2.931-0.012-4.683-2.252-3.91-5.008C55.688,106.801,58.689,104.576,61.62,104.586z"/>
			<path fill="#79D3F2" d="M64.667,112.156c2.93,0.01,4.681,2.25,3.909,5.004c-0.771,2.756-3.771,4.98-6.701,4.97
				c-2.93-0.01-4.68-2.251-3.908-5.005C58.737,114.371,61.737,112.146,64.667,112.156z"/>
			<path fill="#79D3F2" d="M74.062,107.33c2.931,0.01,4.682,2.251,3.909,5.005c-0.771,2.755-3.771,4.979-6.703,4.97
				c-2.931-0.01-4.681-2.25-3.908-5.006C68.131,109.545,71.131,107.32,74.062,107.33z"/>
		</g>
		<g>
			<path fill="#79D3F2" d="M78.434,132.582c2.933,0.011,4.683,2.252,3.91,5.008c-0.771,2.754-3.771,4.979-6.703,4.969
				c-2.93-0.01-4.68-2.252-3.908-5.006C72.503,134.798,75.504,132.572,78.434,132.582z"/>
			<path fill="#79D3F2" d="M87.262,134.465c2.932,0.01,4.683,2.252,3.911,5.006c-0.771,2.756-3.773,4.979-6.704,4.971
				c-2.932-0.012-4.682-2.252-3.91-5.008C81.33,136.68,84.331,134.455,87.262,134.465z"/>
			<path fill="#79D3F2" d="M91.688,125.686c2.933,0.01,4.683,2.252,3.91,5.006c-0.771,2.757-3.771,4.98-6.704,4.972
				c-2.93-0.011-4.68-2.252-3.907-5.007C85.758,127.9,88.758,125.676,91.688,125.686z"/>
			<path fill="#79D3F2" d="M96.116,116.909c2.93,0.011,4.68,2.251,3.908,5.007c-0.771,2.754-3.772,4.979-6.702,4.969
				c-2.932-0.01-4.682-2.252-3.91-5.006C90.184,119.123,93.186,116.898,96.116,116.909z"/>
		</g>
		<g>
			<path fill="#79D3F2" d="M140.292,106.863c2.93,0.01,4.68,2.252,3.908,5.006c-0.771,2.755-3.772,4.98-6.702,4.971
				c-2.932-0.011-4.681-2.252-3.909-5.007C134.361,109.078,137.36,106.854,140.292,106.863z"/>
			<path fill="#79D3F2" d="M134.995,115.408c2.93,0.01,4.68,2.25,3.909,5.006c-0.771,2.754-3.772,4.979-6.702,4.969
				c-2.932-0.01-4.682-2.251-3.909-5.006C129.062,117.622,132.064,115.398,134.995,115.408z"/>
			<path fill="#79D3F2" d="M126.659,112.65c2.931,0.01,4.68,2.25,3.909,5.004c-0.772,2.756-3.772,4.979-6.702,4.971
				c-2.933-0.01-4.683-2.25-3.909-5.006C120.729,114.865,123.729,112.641,126.659,112.65z"/>
			<path fill="#79D3F2" d="M118.322,109.893c2.931,0.012,4.68,2.252,3.908,5.006s-3.771,4.979-6.701,4.97
				c-2.931-0.011-4.68-2.251-3.908-5.005C112.393,112.107,115.393,109.883,118.322,109.893z"/>
		</g>
	</g>
	<line fill="none" stroke="#000000" stroke-miterlimit="10" x1="67.744" y1="19.848" x2="19.5" y2="19.848"/>
	<line fill="none" stroke="#000000" stroke-miterlimit="10" x1="135.624" y1="8.213" x2="82.524" y2="8.213"/>
	<line fill="none" stroke="#000000" stroke-miterlimit="10" x1="52.616" y1="35.143" x2="29.5" y2="35.143"/>
	<line fill="none" stroke="#000000" stroke-miterlimit="10" x1="22.508" y1="70.312" x2="0" y2="70.312"/>
	<line fill="none" stroke="#000000" stroke-miterlimit="10" x1="43.622" y1="180.953" x2="1.5" y2="180.953"/>
	<line fill="none" stroke="#000000" stroke-miterlimit="10" x1="193.665" y1="40.098" x2="119.771" y2="40.098"/>
</g>
<g id="Energy">
</g>
</svg>
