<?xml version="1.0" encoding="utf-8"?>
<!-- Generator: Adobe Illustrator 16.0.0, SVG Export Plug-In . SVG Version: 6.00 Build 0)  -->
<!DOCTYPE svg PUBLIC "-//W3C//DTD SVG 1.1//EN" "http://www.w3.org/Graphics/SVG/1.1/DTD/svg11.dtd">
<svg version="1.1" id="Layer_1" xmlns="http://www.w3.org/2000/svg" xmlns:xlink="http://www.w3.org/1999/xlink" x="0px" y="0px"
	 width="200px" height="200px" viewBox="0 0 200 200" enable-background="new 0 0 200 200" xml:space="preserve">
<g id="Layer_1_1_">
	<g id="Layer_1_4_">
		<g>
			<path fill="#79D3F2" d="M194.634,110.614c-0.818-3.093-3.984-4.935-7.077-4.116c-2.669,0.706-11.192-3.734-19.116-9.747
				c-0.16-1.455-0.315-2.921-0.459-4.406C166.87,80.68,159.42,68.6,155.928,63.499c5.869-6.002,12.761-11.199,15.248-11.405
				c2.987,0.744,6.06-0.993,6.944-3.975c0.908-3.066-0.842-6.288-3.907-7.196c-4.987-1.479-11.067,0.956-19.142,7.653
				c-2.627,2.179-4.979,4.411-6.646,6.062c-5.809-5.585-16.018-13.334-30.449-16.736c-0.025-0.116-0.052-0.232-0.089-0.348
				c-2.522-8.14-5.175-18.146-5.604-21.77c0.291-0.691,0.453-1.451,0.453-2.248c0-3.198-2.594-5.79-5.791-5.79
				c-1.969,0-3.771,0.915-4.947,2.511c-1.524,2.067-3.094,4.204,3.386,25.979c-0.767-0.027-1.53-0.053-2.313-0.053
				c-14.303,0-25.348,3.914-33.861,8.936c-1.517-2.327-3.897-5.889-6.573-9.555C53.773,23.432,49.734,21.148,46.69,20.489
				c-4.959-1.076-9.403-0.286-12.514,2.222c-2.405,1.939-3.785,4.787-3.785,7.81c0,3.198,2.592,5.79,5.79,5.79
				c2.815,0,5.16-2.008,5.682-4.67c0.401-0.061,1.077-0.086,2.093,0.107c2.565,1.464,9.62,10.456,15.813,20.082
				c-6.021,5.059-10.127,10.065-12.861,12.8c-3.433,3.433-7.223,8.837-10.174,15.1c-7.014-3.89-18.732-9.226-25.8-6.164
				c-2.95,1.277-4.952,3.764-5.636,7.003c-0.661,3.129,1.339,6.201,4.468,6.862c2.709,0.571,5.372-0.849,6.469-3.269
				c2.997,0.085,10.185,2.959,16.556,6.652c-0.757,3.169-1.198,6.39-1.198,9.554c0,5.437,1.683,13.562,3.728,21.434
				c-0.452,0.372-0.855,0.817-1.19,1.334c-0.049,0.076-5.04,7.683-10.695,5.982c-3.062-0.919-6.291,0.817-7.21,3.882
				c-0.919,3.062,0.819,6.291,3.881,7.21c1.694,0.511,3.396,0.763,5.09,0.763c4.331,0,8.615-1.648,12.607-4.891
				c0.449-0.364,0.876-0.734,1.28-1.104c1.917,6.221,3.449,10.61,3.449,10.61s0.44,1.604,1.877,4.107
				c-9.805,4.491-22.005,13.698-19.717,26.467c0.502,2.802,2.942,4.771,5.692,4.771c0.339,0,0.683-0.028,1.028-0.094
				c3.148-0.562,5.242-3.57,4.678-6.72c-1.283-7.154,12.041-13.601,16.02-15.078c4.652,4.229,11.456,8.746,21.327,12.416
				c-3.916,3.251-7.433,7.423-7.433,11.917c0,3.199,2.592,5.792,5.79,5.792c3.044,0,5.541-2.353,5.772-5.337
				c0.769-1.512,4.755-4.857,8.437-7.061c0.572-0.342,1.058-0.769,1.464-1.25c2.4,0.526,4.92,1.006,7.578,1.43
				c11.824,1.877,22.097,0.271,30.917-3.29c2.746,5.516,7.743,13.647,14.865,17.806c0.919,0.535,1.923,0.789,2.914,0.789
				c1.99,0,3.93-1.027,5.006-2.874c1.611-2.762,0.679-6.306-2.083-7.918c-4.423-2.58-8.177-8.649-10.423-13.168
				c9.798-6.344,17.242-14.881,22.521-22.396c6.557,4.236,12.736,9.736,13.327,11.977c0.074,3.134,2.64,5.648,5.789,5.648
				c3.196,0,5.789-2.592,5.789-5.791c0-8.48-11.872-17.274-18.744-21.651c1.407-2.521,2.423-4.547,3.056-5.812
				c2.396-4.795,2.601-11.131,2.06-18.392c5.528,3.337,11.854,6.21,17.243,6.21c1.125,0,2.209-0.126,3.236-0.396
				C193.612,116.874,195.452,113.704,194.634,110.614z"/>
		</g>
		
			<radialGradient id="SVGID_1_" cx="696.9453" cy="697.9629" r="56.0537" gradientTransform="matrix(1 0 0 1 -596 -591)" gradientUnits="userSpaceOnUse">
			<stop  offset="0" style="stop-color:#5757BB"/>
			<stop  offset="0.3472" style="stop-color:#5A5ABD"/>
			<stop  offset="0.5553" style="stop-color:#6262C3"/>
			<stop  offset="0.7268" style="stop-color:#7070CC"/>
			<stop  offset="0.8775" style="stop-color:#8484DA"/>
			<stop  offset="1" style="stop-color:#9B9BEA"/>
		</radialGradient>
		<path fill="url(#SVGID_1_)" stroke="#FFFFFF" stroke-width="0.8636" stroke-miterlimit="10" d="M54.216,137.862
			c0,0-8.751-25.091-8.751-36.175c0-11.086,6.708-23.048,12.252-28.591c5.543-5.544,18.088-22.756,44.928-22.756
			c26.842,0,40.844,19.838,40.844,19.838s9.92,12.837,11.086,25.09c1.168,12.251,3.502,23.337,0,30.339
			c-3.5,7-21.588,43.18-58.348,37.344C59.466,157.118,54.216,137.862,54.216,137.862z"/>
	</g>
	<g id="Layer_2_3_">
		<g>
			<circle fill="#79D3F2" cx="66.003" cy="87.356" r="5.147"/>
			<circle fill="#79D3F2" cx="74.699" cy="90.549" r="5.147"/>
			<circle fill="#79D3F2" cx="77.893" cy="81.854" r="5.146"/>
			<circle fill="#79D3F2" cx="81.088" cy="73.158" r="5.147"/>
			<circle fill="#79D3F2" cx="90.508" cy="76.618" r="5.147"/>
		</g>
		<g>
			<circle fill="#79D3F2" cx="117.507" cy="75.496" r="5.147"/>
			<circle fill="#79D3F2" cx="118.472" cy="66.282" r="5.147"/>
			<circle fill="#79D3F2" cx="109.258" cy="65.318" r="5.147"/>
		</g>
		<g>
			<circle fill="#79D3F2" cx="94.517" cy="97.358" r="5.147"/>
			<circle fill="#79D3F2" cx="97.104" cy="106.254" r="5.146"/>
			<circle fill="#79D3F2" cx="106" cy="103.668" r="5.147"/>
		</g>
		<g>
			<circle fill="#79D3F2" cx="126.668" cy="94.406" r="5.148"/>
			<circle fill="#79D3F2" cx="135.839" cy="95.72" r="5.146"/>
			<circle fill="#79D3F2" cx="137.151" cy="86.55" r="5.146"/>
		</g>
		<g>
			<circle fill="#79D3F2" cx="63.75" cy="113.017" r="5.147"/>
			<circle fill="#79D3F2" cx="68.757" cy="120.81" r="5.146"/>
			<circle fill="#79D3F2" cx="76.551" cy="115.802" r="5.147"/>
		</g>
		<g>
			<circle fill="#79D3F2" cx="87.641" cy="141.821" r="5.147"/>
			<circle fill="#79D3F2" cx="96.707" cy="143.73" r="5.147"/>
			<circle fill="#79D3F2" cx="98.613" cy="134.664" r="5.146"/>
			<circle fill="#79D3F2" cx="100.522" cy="125.6" r="5.147"/>
		</g>
		<g>
			<circle fill="#79D3F2" cx="140.606" cy="115.088" r="5.147"/>
			<circle fill="#79D3F2" cx="137.792" cy="123.915" r="5.146"/>
			<circle fill="#79D3F2" cx="128.966" cy="121.101" r="5.147"/>
			<circle fill="#79D3F2" cx="120.139" cy="118.288" r="5.146"/>
		</g>
	</g>
</g>
<g id="Defense_Cell_Wall">
</g>
<g id="Aggression">
	<g opacity="0.5">
		<path fill="#FF0000" d="M194.634,110.614c-0.818-3.093-3.984-4.935-7.077-4.116c-2.669,0.706-11.192-3.734-19.116-9.747
			c-0.16-1.455-0.315-2.921-0.459-4.406C166.87,80.68,159.42,68.6,155.928,63.499c5.869-6.002,12.761-11.199,15.248-11.405
			c2.987,0.744,6.06-0.993,6.944-3.975c0.908-3.066-0.842-6.288-3.907-7.196c-4.987-1.479-11.067,0.956-19.142,7.653
			c-2.627,2.179-4.979,4.411-6.646,6.062c-5.809-5.585-16.018-13.334-30.449-16.736c-0.025-0.116-0.052-0.232-0.089-0.348
			c-2.522-8.14-5.175-18.146-5.604-21.77c0.291-0.691,0.453-1.451,0.453-2.248c0-3.198-2.594-5.79-5.791-5.79
			c-1.969,0-3.771,0.915-4.947,2.511c-1.524,2.067-3.094,4.204,3.386,25.979c-0.767-0.027-1.53-0.053-2.313-0.053
			c-14.303,0-25.348,3.914-33.861,8.936c-1.517-2.327-3.897-5.889-6.573-9.555C53.773,23.432,49.734,21.148,46.69,20.489
			c-4.959-1.076-9.403-0.286-12.514,2.222c-2.405,1.939-3.785,4.787-3.785,7.81c0,3.198,2.592,5.79,5.79,5.79
			c2.815,0,5.16-2.008,5.682-4.67c0.401-0.061,1.077-0.086,2.093,0.107c2.565,1.464,9.62,10.456,15.813,20.082
			c-6.021,5.059-10.127,10.065-12.861,12.8c-3.433,3.433-7.223,8.837-10.174,15.1c-7.014-3.89-18.732-9.226-25.8-6.164
			c-2.95,1.277-4.952,3.764-5.636,7.003c-0.661,3.129,1.339,6.201,4.468,6.862c2.709,0.571,5.372-0.849,6.469-3.269
			c2.997,0.085,10.185,2.959,16.556,6.652c-0.757,3.169-1.198,6.39-1.198,9.554c0,5.437,1.683,13.562,3.728,21.434
			c-0.452,0.372-0.855,0.817-1.19,1.334c-0.049,0.076-5.04,7.683-10.695,5.982c-3.062-0.919-6.291,0.817-7.21,3.882
			c-0.919,3.062,0.819,6.291,3.881,7.21c1.694,0.511,3.396,0.763,5.09,0.763c4.331,0,8.615-1.648,12.607-4.891
			c0.449-0.364,0.876-0.734,1.28-1.104c1.917,6.221,3.449,10.61,3.449,10.61s0.44,1.604,1.877,4.107
			c-9.805,4.491-22.005,13.698-19.717,26.467c0.502,2.802,2.942,4.771,5.692,4.771c0.339,0,0.683-0.028,1.028-0.094
			c3.148-0.562,5.242-3.57,4.678-6.72c-1.283-7.154,12.041-13.601,16.02-15.078c4.652,4.229,11.456,8.746,21.327,12.416
			c-3.916,3.251-7.433,7.423-7.433,11.917c0,3.199,2.592,5.792,5.79,5.792c3.044,0,5.541-2.353,5.772-5.337
			c0.769-1.512,4.755-4.857,8.437-7.061c0.572-0.342,1.058-0.769,1.464-1.25c2.4,0.526,4.92,1.006,7.578,1.43
			c11.824,1.877,22.097,0.271,30.917-3.29c2.746,5.516,7.743,13.647,14.865,17.806c0.919,0.535,1.923,0.789,2.914,0.789
			c1.99,0,3.93-1.027,5.006-2.874c1.611-2.762,0.679-6.306-2.083-7.918c-4.423-2.58-8.177-8.649-10.423-13.168
			c9.798-6.344,17.242-14.881,22.521-22.396c6.557,4.236,12.736,9.736,13.327,11.977c0.074,3.134,2.64,5.648,5.789,5.648
			c3.196,0,5.789-2.592,5.789-5.791c0-8.48-11.872-17.274-18.744-21.651c1.407-2.521,2.423-4.547,3.056-5.812
			c2.396-4.795,2.601-11.131,2.06-18.392c5.528,3.337,11.854,6.21,17.243,6.21c1.125,0,2.209-0.126,3.236-0.396
			C193.612,116.874,195.452,113.704,194.634,110.614z"/>
	</g>
</g>
<g id="Speed">
</g>
<g id="Energy">
</g>
</svg>
