<?xml version="1.0" encoding="utf-8"?>
<!-- Generator: Adobe Illustrator 16.0.0, SVG Export Plug-In . SVG Version: 6.00 Build 0)  -->
<!DOCTYPE svg PUBLIC "-//W3C//DTD SVG 1.1//EN" "http://www.w3.org/Graphics/SVG/1.1/DTD/svg11.dtd">
<svg version="1.1" xmlns="http://www.w3.org/2000/svg" xmlns:xlink="http://www.w3.org/1999/xlink" x="0px" y="0px" width="200px"
	 height="200px" viewBox="0 0 200 200" enable-background="new 0 0 200 200" xml:space="preserve">
<g id="Layer_1">
	<g id="Layer_1_1_">
		<g>
			<path fill="#79D3F2" d="M193.959,107.701c-0.818-3.092-3.984-4.934-7.077-4.116c-2.669,0.706-11.192-3.734-19.116-9.747
				c-0.16-1.455-0.316-2.921-0.459-4.406c-1.111-11.665-8.562-23.745-12.054-28.846c5.869-6.002,12.761-11.199,15.248-11.405
				c2.987,0.744,6.06-0.993,6.944-3.975c0.908-3.066-0.842-6.288-3.907-7.196c-4.987-1.479-11.067,0.956-19.142,7.653
				c-2.627,2.179-4.979,4.411-6.646,6.062c-5.808-5.585-16.017-13.334-30.449-16.736c-0.026-0.116-0.052-0.232-0.089-0.348
				c-2.523-8.14-5.175-18.146-5.604-21.77c0.291-0.691,0.453-1.451,0.453-2.248c0-3.198-2.594-5.79-5.791-5.79
				c-1.969,0-3.771,0.915-4.948,2.511c-1.523,2.067-3.093,4.204,3.386,25.979c-0.766-0.027-1.531-0.053-2.314-0.053
				c-14.302,0-25.347,3.914-33.86,8.936c-1.517-2.327-3.897-5.889-6.573-9.555C53.099,20.519,49.06,18.235,46.016,17.576
				c-4.959-1.076-9.403-0.286-12.514,2.222c-2.405,1.939-3.785,4.787-3.785,7.81c0,3.198,2.592,5.79,5.79,5.79
				c2.815,0,5.16-2.008,5.682-4.67c0.401-0.061,1.077-0.086,2.093,0.107c2.565,1.464,9.62,10.456,15.813,20.082
				c-6.021,5.059-10.127,10.065-12.861,12.8c-3.433,3.433-7.223,8.837-10.174,15.1c-7.014-3.89-18.732-9.226-25.8-6.164
				c-2.95,1.277-4.952,3.764-5.636,7.003c-0.661,3.129,1.339,6.201,4.468,6.862c2.709,0.571,5.372-0.849,6.469-3.269
				c2.997,0.085,10.185,2.959,16.556,6.652c-0.757,3.169-1.198,6.39-1.198,9.554c0,5.436,1.683,13.562,3.728,21.434
				c-0.452,0.372-0.855,0.817-1.19,1.334c-0.049,0.076-5.04,7.682-10.695,5.982c-3.062-0.919-6.291,0.818-7.21,3.882
				c-0.919,3.063,0.819,6.291,3.881,7.21c1.694,0.51,3.396,0.762,5.09,0.762c4.331,0,8.615-1.648,12.607-4.89
				c0.449-0.364,0.876-0.735,1.28-1.104c1.917,6.221,3.449,10.611,3.449,10.611s0.44,1.604,1.877,4.107
				c-9.805,4.492-22.005,13.699-19.717,26.467c0.502,2.802,2.942,4.77,5.692,4.77c0.339,0,0.683-0.028,1.028-0.093
				c3.148-0.563,5.242-3.571,4.678-6.72c-1.283-7.154,12.041-13.6,16.02-15.078c4.652,4.229,11.456,8.746,21.327,12.416
				c-3.916,3.251-7.433,7.423-7.433,11.917c0,3.199,2.592,5.792,5.79,5.792c3.044,0,5.541-2.352,5.772-5.337
				c0.769-1.511,4.755-4.858,8.437-7.06c0.572-0.342,1.058-0.769,1.464-1.25c2.4,0.526,4.92,1.006,7.578,1.429
				c11.823,1.877,22.096,0.271,30.917-3.29c2.746,5.516,7.743,13.648,14.865,17.806c0.919,0.535,1.923,0.789,2.914,0.789
				c1.99,0,3.93-1.028,5.006-2.874c1.611-2.762,0.679-6.306-2.083-7.918c-4.423-2.58-8.177-8.65-10.423-13.168
				c9.798-6.344,17.242-14.881,22.522-22.395c6.556,4.236,12.736,9.736,13.327,11.976c0.074,3.134,2.639,5.649,5.789,5.649
				c3.197,0,5.789-2.592,5.789-5.791c0-8.481-11.872-17.275-18.744-21.652c1.407-2.52,2.423-4.547,3.055-5.811
				c2.397-4.795,2.601-11.131,2.06-18.392c5.528,3.337,11.854,6.21,17.243,6.21c1.125,0,2.209-0.126,3.236-0.396
				C192.938,113.961,194.777,110.791,193.959,107.701z"/>
		</g>
		
			<radialGradient id="SVGID_1_" cx="398.2705" cy="-291.0498" r="56.0542" gradientTransform="matrix(1 0 0 -1 -298 -187)" gradientUnits="userSpaceOnUse">
			<stop  offset="0" style="stop-color:#5757BB"/>
			<stop  offset="0.3472" style="stop-color:#5A5ABD"/>
			<stop  offset="0.5553" style="stop-color:#6262C3"/>
			<stop  offset="0.7268" style="stop-color:#7070CC"/>
			<stop  offset="0.8775" style="stop-color:#8484DA"/>
			<stop  offset="1" style="stop-color:#9B9BEA"/>
		</radialGradient>
		<path fill="url(#SVGID_1_)" stroke="#FFFFFF" stroke-width="0.8636" stroke-miterlimit="10" d="M53.542,134.949
			c0,0-8.751-25.09-8.751-36.175c0-11.086,6.708-23.048,12.252-28.591c5.543-5.544,18.088-22.756,44.928-22.756
			c26.842,0,40.844,19.838,40.844,19.838s9.92,12.837,11.086,25.09c1.168,12.252,3.502,23.338,0,30.34
			c-3.5,7-21.588,43.179-58.348,37.343C58.792,154.205,53.542,134.949,53.542,134.949z"/>
	</g>
	<g id="Layer_2">
		<g>
			<circle fill="#79D3F2" cx="65.329" cy="84.443" r="5.147"/>
			<circle fill="#79D3F2" cx="74.025" cy="87.636" r="5.147"/>
			<circle fill="#79D3F2" cx="77.219" cy="78.941" r="5.146"/>
			<circle fill="#79D3F2" cx="80.414" cy="70.245" r="5.147"/>
			<circle fill="#79D3F2" cx="89.834" cy="73.705" r="5.147"/>
		</g>
		<g>
			<circle fill="#79D3F2" cx="116.832" cy="72.583" r="5.147"/>
			<circle fill="#79D3F2" cx="117.797" cy="63.369" r="5.147"/>
			<circle fill="#79D3F2" cx="108.583" cy="62.405" r="5.147"/>
		</g>
		<g>
			<circle fill="#79D3F2" cx="93.843" cy="94.445" r="5.147"/>
			<circle fill="#79D3F2" cx="96.43" cy="103.341" r="5.146"/>
			<circle fill="#79D3F2" cx="105.325" cy="100.755" r="5.147"/>
		</g>
		<g>
			<circle fill="#79D3F2" cx="125.993" cy="91.493" r="5.148"/>
			<circle fill="#79D3F2" cx="135.164" cy="92.807" r="5.146"/>
			<circle fill="#79D3F2" cx="136.477" cy="83.637" r="5.146"/>
		</g>
		<g>
			<circle fill="#79D3F2" cx="63.075" cy="110.104" r="5.147"/>
			<circle fill="#79D3F2" cx="68.083" cy="117.897" r="5.146"/>
			<circle fill="#79D3F2" cx="75.877" cy="112.889" r="5.147"/>
		</g>
		<g>
			<circle fill="#79D3F2" cx="86.967" cy="138.908" r="5.147"/>
			<circle fill="#79D3F2" cx="96.032" cy="140.817" r="5.147"/>
			<circle fill="#79D3F2" cx="97.939" cy="131.751" r="5.147"/>
			<circle fill="#79D3F2" cx="99.848" cy="122.687" r="5.147"/>
		</g>
		<g>
			<circle fill="#79D3F2" cx="139.932" cy="112.175" r="5.147"/>
			<circle fill="#79D3F2" cx="137.117" cy="121.002" r="5.146"/>
			<circle fill="#79D3F2" cx="128.291" cy="118.188" r="5.147"/>
			<circle fill="#79D3F2" cx="119.464" cy="115.375" r="5.146"/>
		</g>
	</g>
</g>
<g id="Defense_Cell_Wall">
</g>
<g id="Aggression">
</g>
<g id="Speed">
</g>
<g id="Energy">
</g>
</svg>
