<?xml version="1.0" encoding="utf-8"?>
<!-- Generator: Adobe Illustrator 16.0.0, SVG Export Plug-In . SVG Version: 6.00 Build 0)  -->
<!DOCTYPE svg PUBLIC "-//W3C//DTD SVG 1.1//EN" "http://www.w3.org/Graphics/SVG/1.1/DTD/svg11.dtd">
<svg version="1.1" xmlns="http://www.w3.org/2000/svg" xmlns:xlink="http://www.w3.org/1999/xlink" x="0px" y="0px" width="200px"
	 height="200px" viewBox="0 0 200 200" enable-background="new 0 0 200 200" xml:space="preserve">
<g id="Layer_1">
	<path fill="#79D3F2" d="M21.479,151.916c0,0-14.757-42.307-14.757-61c0-18.693,11.313-38.862,20.66-48.208
		c9.346-9.347,30.5-38.371,75.756-38.371c45.258,0,68.869,33.45,68.869,33.45s16.725,21.646,18.692,42.307s5.903,39.353,0,51.159
		c-5.901,11.808-36.402,72.805-98.384,62.967S21.479,151.916,21.479,151.916z"/>
	<radialGradient id="SVGID_1_" cx="100.271" cy="99.8125" r="75.6135" gradientUnits="userSpaceOnUse">
		<stop  offset="0" style="stop-color:#5757BB"/>
		<stop  offset="0.3472" style="stop-color:#5A5ABD"/>
		<stop  offset="0.5553" style="stop-color:#6262C3"/>
		<stop  offset="0.7268" style="stop-color:#7070CC"/>
		<stop  offset="0.8775" style="stop-color:#8484DA"/>
		<stop  offset="1" style="stop-color:#9B9BEA"/>
	</radialGradient>
	<path fill="url(#SVGID_1_)" stroke="#FFFFFF" stroke-width="1.1649" stroke-miterlimit="10" d="M37.238,141.494
		c0,0-11.806-33.844-11.806-48.798s9.05-31.09,16.527-38.567c7.478-7.477,24.4-30.696,60.605-30.696
		c36.206,0,55.096,26.761,55.096,26.761s13.38,17.316,14.954,33.845c1.574,16.529,4.722,31.483,0,40.927
		c-4.722,9.445-29.122,58.244-78.708,50.373C44.322,167.468,37.238,141.494,37.238,141.494z"/>
</g>
<g id="Layer_2">
	
		<path opacity="0.4" fill="none" stroke="#9B9BEA" stroke-width="2.3298" stroke-linecap="round" stroke-linejoin="round" stroke-miterlimit="10" d="
		M60.063,131.641c4.626,2.931-0.566,10.257-6.177,8.537c-0.41-1.297-0.398-3.955,0-5.252c1.885-0.331,3.384-2.051,4.715-2.477
		c-3.255-1.897-14.698-6.803-3.34-8.875c-6.688-4.083,2.573-6.921,6.376-7.676c2.093-0.415,7.575,1.445,7.942-1.576
		c0.281-2.317-4.46-3.222-6.266-3.284c1.226-6.653,9.827-2.932,8.849,3.952c5.091,1.37,10.443-1.736,7.811-7.196
		c-1.659-3.438-7.354-1.952-7.983-6.733c5.51-1.264,9.296,3.19,14.731,2.126c1.107-4.179-1.769-7.366-4.54-9.346
		c4.486-3.169,5.532,0.168,7.79,0.808c3.229,0.914,8.151,3.704,14.029,0.689c2.336-7.85-7.323-6.596-8.419-12.377
		c4.604-0.244,9.363-0.02,13.969-0.239c1.182-5.008-1.795-10.511,1.085-14.104c2.674-3.334,9.024-2.93,11.394-0.063
		c3.081-12.286,4.649-10.035,13.302-7.852c0.234-0.756,0.18-1.358,0.424-2.127c2.249-0.841,3.52-2.33,6.045-2.608
		c-0.018-0.058-0.019-2.078-0.002-2.132c-12.411-2.441,2.716,14.851,1.732,17.235c-2.846,6.902-5.105-4.312-5.529-4.775
		c-2.484-2.735-5.562-4.47-10.122-3.832c-1.23,7.969,9.451,5.893,10.025,12.563c-5.919,2.077-13.661-1.666-10.959,7.855
		c0.686,2.419,3.846,3.68,4.601,5.625c1.14,2.941-1.818,4.347,0.948,7.435c1.636-1.897,2.683-4.499,3.025-6.726
		c-0.853,0.127-2.125,0.002-3.022,0.055c4.048,3.645,6.979-0.109,7.51-3.93c0.066-0.476-3.414-5.12-2.931-7.888
		c-11.052-0.188,3.328,10.202-0.657-0.374c-1.258-3.34-9.383-6.524-12.541-7.924c1.356-3.67,12.162-6.565,11.835-0.485
		c-0.214,3.962-15.033,7.604-18.684,7.599c0.441-1.34-0.192-4.377,0.368-5.883c-1.097-0.396-2.028-0.607-3.086-0.671
		c-3.228,5.654-0.052,12.739,6.219,13.794c0.634-1.196,1.648-1.911,2.242-3.044c-8.64-3.003,3.822,26.409,8.833,14.345
		c-1.001-0.378-4.336-0.974-5.309-0.951c2.746,12.383-8.591,5.467-13.42,4.787c-0.606,1.804-2.563,2.743-3.267,3.851
		c-0.675-1.074-0.899-2.004-1.301-3.188c3.049-2.293,16.82-3.783,13.77-9.399c-3.277-6.034-14.921,10.488-14.708-2.227
		c2.834-0.158,16.735,0.752,10.028-6.256c-4.873-5.092-13.889,3.314-16.359,5.998c4.525,1.117,8.876,3.836,10.104,8.224
		c-20.562,10.016,8.599,17.134,9.627,9.293c1.777,0.562,4.933,1.258,6.688,2.433c-5.082-2.301-2.877-6.097-9.135-8.045
		c-8.103-2.522-15.509-1.082-14.223,7.162c0.345,2.208,7.464,7.232,0.035,7.827c-8.542,0.686-2.713-6.681-0.063-9.282
		c-4.902-2.437-11.509,4.177-14.021-2.381c4.018-1.414,10.157,0.928,11.659-3.916c-19.303-6.169-12.182,12.879-2.516,14.579
		c-4.146,1.956-10.67,1.613-14.597-0.706c-0.446-3.747,2.591-5.47,6.044-5.25c1.633,6.608-7.967,11.262-13.099,8.579
		c-0.922,3.308,0.319,5.893,3.666,6.392c-0.69,5.622-10.304,6.799-9.42-0.019c-1.24-0.282-2.52-0.197-3.755-0.041
		c-1.5,5.146,3.178,5.873,4.555,9.862c-3.705,1.044-12.138,0.136-10.833-5.259c1.027-4.25,7.402-0.244,6.886-6.137
		c-8.757-2.807-9.96,8.117-8.58,14.048"/>
	<g opacity="0.3">
		<path fill="#9B9BEA" d="M72,145.29c0,0.402-0.218,0.812-0.266,1.236c-0.045,0.212-0.147,0.427-0.225,0.638l-0.154,0.317
			c-0.028,0.11-0.125,0.201-0.176,0.302l-0.183,0.295l-0.227,0.253c-0.143,0.18-0.31,0.324-0.486,0.453
			c-0.333,0.296-0.716,0.475-1.081,0.701c-0.089,0.056-0.197,0.06-0.286,0.02l-0.009-0.004l-1.219-0.557
			c-0.366-0.256-0.724-0.532-1.084-0.806c-0.294-0.339-0.607-0.671-0.884-1.027l-0.34-0.583c-0.104-0.199-0.241-0.387-0.317-0.598
			l-0.228-0.633c-0.067-0.213-0.171-0.42-0.206-0.64L64.504,144c-0.034-0.22-0.099-0.439-0.105-0.661
			c-0.016-0.443-0.049-0.89-0.046-1.335l0.124-1.328c0.033-0.347,0.474-0.602,0.82-0.569c0.346,0.032,0.702,0.34,0.702,0.687v0.007
			l-0.141,0.062c-0.141,1.274-0.368,2.535-0.533,3.775c-0.062,0.617-0.168,1.234-0.222,1.849l-0.094,1.835L65,148.37
			c-0.015,0.36-0.284,0.65-0.624,0.712l-0.875,0.157c-0.285,0.068-0.6,0.063-0.909,0.069l-0.465,0.005
			c-0.158-0.014-0.321-0.049-0.481-0.075l-0.482-0.09c-0.16-0.043-0.317-0.122-0.476-0.185c-0.157-0.071-0.318-0.131-0.468-0.217
			l-0.425-0.313c-0.302-0.195-0.494-0.493-0.72-0.762c-0.208-0.278-0.331-0.596-0.487-0.898c-0.089-0.312-0.203-0.629-0.258-0.942
			c-0.033-0.312-0.102-0.632-0.096-0.939c0.009-0.306-0.017-0.623,0.029-0.921c0.043-0.299,0.057-0.608,0.131-0.898
			c0.073-0.29,0.122-0.59,0.219-0.873c0.174-0.573,0.407-1.126,0.678-1.664l0.46-0.784l0.549-0.741l0.74,1.795
			c-0.306-0.048-0.661-0.086-0.926-0.17c-0.256-0.085-0.553-0.164-0.775-0.263l-1.343-0.558c-0.42-0.18-0.82-0.318-1.205-0.438
			l-0.547-0.118c-0.163,0-0.322-0.008-0.482-0.022l-0.237-0.022c-0.607-0.056-1.053-0.593-0.997-1.2
			c0.003-0.035,0.008-0.071,0.015-0.104l0.218-1.14c0.121-0.374,0.275-0.746,0.422-1.116c0.204-0.347,0.417-0.697,0.651-1.026
			l0.413-0.447c0.145-0.14,0.27-0.311,0.435-0.421c0.322-0.229,0.633-0.501,0.978-0.68c0.347-0.166,0.691-0.376,1.049-0.494
			l0.538-0.179c0.18-0.052,0.36-0.132,0.541-0.157l1.084-0.207l-1.133,1.573c-0.116-0.616-0.247-1.228-0.295-1.87
			c-0.042-0.314-0.055-0.64-0.056-0.969c-0.014-0.324-0.008-0.655,0.029-0.995c0.016-0.334,0.063-0.676,0.145-1.025
			c0.052-0.342,0.181-0.7,0.308-1.054c0.298-0.696,0.709-1.471,1.55-2.013c0.812-0.552,1.888-0.683,2.739-0.5
			c0.82,0.203,1.532,0.552,2.092,0.967c0.291,0.204,0.576,0.414,0.81,0.645l0.372,0.34l0.092,0.086l0.023,0.021l0.012,0.011
			l0.08,0.087l0.035,0.041l0.141,0.164c0.1,0.116,0.277,0.379,0.396,0.567l0.263,0.492c0.153,0.32,0.28,0.63,0.394,0.934
			c0.439,1.201,0.713,2.324,1.058,3.34c0.167,0.5,0.354,0.979,0.548,1.316c0.193,0.355,0.392,0.421,0.179,0.311
			c-0.098-0.003-0.094-0.017-0.028-0.026c0.047-0.026,0.104-0.061,0.161-0.081l0.219-0.148c0.315-0.244,0.669-0.56,1.007-0.948
			c0.341-0.371,0.677-0.785,1-1.219c0.33-0.424,0.64-0.884,0.957-1.332l0.059-0.084c0.518-0.732,1.531-0.906,2.263-0.388
			c0.174,0.123,0.319,0.279,0.429,0.448l0.269,0.418c0.083,0.139,0.188,0.287,0.243,0.418c0.125,0.267,0.274,0.544,0.373,0.808
			c0.098,0.264,0.209,0.53,0.292,0.793c0.079,0.263,0.163,0.526,0.234,0.789c0.136,0.525,0.249,1.056,0.336,1.592
			c0.08,0.538,0.134,1.094,0.153,1.674c0.027,0.829-0.542,1.539-1.322,1.717l-0.146,0.033l-0.701,0.16l-0.741,0.23l-1.637,0.597
			l-0.923,0.309l-1.01,0.261c-0.364,0.058-0.727,0.116-1.094,0.161l-1.147,0.016l1.499-2.985c0.435,0.434,0.843,0.914,1.314,1.254
			l0.339,0.281l0.358,0.218c0.235,0.156,0.471,0.302,0.717,0.387l0.36,0.162c0.121,0.042,0.244,0.061,0.364,0.096
			c0.121,0.028,0.24,0.073,0.36,0.094l0.359,0.029c0.479,0.058,0.945-0.039,1.411-0.155c0.454-0.18,0.916-0.377,1.328-0.715
			c0.431-0.295,0.803-0.713,1.15-1.141c0.178-0.213,0.312-0.466,0.476-0.692c0.129-0.251,0.269-0.498,0.387-0.754
			c0.216-0.522,0.407-1.061,0.498-1.61c0.054-0.273,0.098-0.547,0.101-0.819c0.033-0.274,0.015-0.542-0.004-0.807
			c-0.027-0.534-0.162-1.033-0.322-1.513c-0.107-0.228-0.212-0.454-0.328-0.676c-0.155-0.197-0.264-0.424-0.437-0.61
			c-0.329-0.383-0.717-0.727-1.165-1.024c-0.242-0.13-0.456-0.292-0.712-0.41l-0.786-0.339c-0.571-0.163-1.125-0.365-1.749-0.446
			c-0.596-0.138-1.241-0.163-1.875-0.221c-0.637-0.045-1.3-0.006-1.949-0.019l-0.164-0.003c-0.926-0.017-1.69-0.674-1.881-1.541
			c-0.096-0.438-0.187-0.878-0.222-1.355c-0.032-0.229-0.02-0.485-0.024-0.729c-0.009-0.241,0.031-0.505,0.058-0.759
			c0.02-0.253,0.098-0.521,0.158-0.778c0.058-0.26,0.177-0.52,0.273-0.775c0.227-0.51,0.534-0.99,0.902-1.405
			c0.19-0.193,0.375-0.411,0.586-0.569c0.207-0.168,0.416-0.341,0.635-0.469c0.433-0.282,0.882-0.498,1.324-0.66
			c0.445-0.174,0.885-0.287,1.319-0.378c0.436-0.094,0.859-0.141,1.283-0.186l-1.882,1.798c0.013-0.232,0.03-0.46,0.006-0.646
			c0.005-0.106-0.038-0.171-0.043-0.26c-0.006-0.09-0.057-0.139-0.069-0.214c-0.054-0.13-0.127-0.232-0.214-0.339
			c-0.105-0.098-0.216-0.204-0.383-0.296c-0.16-0.095-0.354-0.186-0.581-0.252c-0.219-0.075-0.471-0.129-0.735-0.165
			c-0.262-0.042-0.543-0.058-0.829-0.063c-0.286-0.006-0.581,0.013-0.876,0.033l-0.124,0.009c-1.147,0.079-2.142-0.786-2.221-1.934
			c-0.067-0.976,0.549-1.84,1.439-2.126c0.521-0.168,1.018-0.363,1.561-0.499c0.535-0.146,1.08-0.278,1.655-0.365
			c0.563-0.102,1.162-0.151,1.768-0.161c0.608-0.013,1.238,0.039,1.868,0.149c1.267,0.224,2.521,0.791,3.523,1.54
			c1.011,0.745,1.795,1.618,2.46,2.445c1.309,1.658,2.322,3.208,3.468,4.041c0.286,0.196,0.566,0.376,0.865,0.497
			c0.296,0.127,0.6,0.228,0.936,0.273c0.163,0.033,0.331,0.059,0.511,0.062c0.175,0.013,0.351,0.03,0.541,0.013
			c0.367,0.004,0.762-0.062,1.154-0.109l0.112-0.014c1.125-0.135,2.148,0.668,2.283,1.794c0.022,0.181,0.018,0.369-0.007,0.541
			l-0.253,1.734c-0.088,0.612-0.193,1.246-0.33,1.897c-0.142,0.655-0.33,1.324-0.571,1.995c-0.14,0.335-0.274,0.671-0.428,1.002
			l-0.542,0.976l-1.363-3.013c0.561,0.081,1.123,0.149,1.691,0.164c0.565,0.01,1.133-0.002,1.686-0.075
			c0.553-0.064,1.103-0.162,1.613-0.325c0.266-0.064,0.513-0.156,0.75-0.262c0.251-0.087,0.481-0.199,0.695-0.328
			c0.232-0.11,0.437-0.243,0.625-0.39c0.212-0.128,0.38-0.287,0.542-0.449c0.187-0.146,0.311-0.331,0.446-0.508
			c0.16-0.163,0.235-0.373,0.346-0.563c0.199-0.394,0.333-0.829,0.386-1.306c0.06-0.227,0.042-0.482,0.04-0.733
			c0.011-0.249,0.003-0.505-0.054-0.772l-0.058-0.396l-0.027-0.199l-0.112-0.025L97,122.846v-0.007c0,0.075,0.059-0.176,0.155,0.166
			l0.035-0.059l-0.012-0.117l-0.142-0.459c-0.046-0.055-0.077-0.109-0.109-0.17l-0.043-0.097l-0.109-0.154l-0.217-0.312
			l-0.535-0.631c-0.398-0.417-0.83-0.823-1.29-1.22c-0.47-0.39-0.952-0.771-1.457-1.136c-1.009-0.727-2.076-1.398-3.171-2.002
			c-0.545-0.304-1.103-0.588-1.658-0.838c-0.557-0.264-1.112-0.471-1.639-0.646l-0.115-0.038c-0.639-0.213-1.04-0.814-1.03-1.454
			c0.018-1.053,0.04-2.105,0.188-3.193c0.055-0.538,0.169-1.093,0.292-1.646c0.137-0.558,0.317-1.125,0.577-1.698
			c0.288-0.569,0.606-1.161,1.166-1.675c0.527-0.508,1.251-0.934,1.99-1.07c0.728-0.152,1.444-0.133,2.054-0.005
			c0.63,0.11,1.183,0.309,1.715,0.521c2.081,0.897,3.747,2.13,5.382,3.361c1.621,1.243,3.162,2.538,4.708,3.781
			c0.525,0.422,0.608,1.19,0.187,1.716c-0.094,0.116-0.204,0.211-0.325,0.283l-0.052,0.031c-0.212,0.125-0.421,0.23-0.64,0.366
			l-0.665,0.448c-0.447,0.322-0.902,0.658-1.361,1.008c-0.464,0.35-0.935,0.702-1.437,1.05c-0.239,0.176-0.397,0.342-0.659,0.511
			C98.517,117.63,98,117.78,98,117.934v-2.032l1.789,0.735l1.92,0.542l2,0.344l2.044,0.138l0.05,0.005
			c0.537,0.036,0.939,0.501,0.903,1.038l-0.012,0.089c-0.097,0.601-0.194,1.207-0.195,1.788c-0.013,0.58,0.041,1.152,0.199,1.623
			c0.082,0.23,0.173,0.452,0.304,0.605c0.121,0.168,0.261,0.289,0.428,0.369c0.318,0.18,0.789,0.188,1.283,0.067
			c1.005-0.263,1.996-1.003,2.771-1.88c0.787-0.885,1.371-1.957,1.738-3.088l0.223,0.826c-0.31-0.277-0.632-0.544-0.986-0.783
			c-0.357-0.237-0.732-0.46-1.126-0.67c-0.787-0.421-1.635-0.802-2.494-1.269c-0.431-0.235-0.856-0.507-1.271-0.815
			c-0.407-0.329-0.797-0.698-1.119-1.138c-0.143-0.23-0.325-0.44-0.428-0.692c-0.104-0.247-0.254-0.484-0.313-0.743
			c-0.068-0.256-0.169-0.511-0.205-0.767l-0.114-0.771c-0.044-0.296,0.109-0.576,0.361-0.706l0.049-0.025l1.646-0.848
			c0.562-0.291,1.141-0.569,1.742-0.827c0.312-0.114,0.618-0.235,0.934-0.342c0.326-0.085,0.647-0.183,0.978-0.255
			c0.337-0.049,0.672-0.109,1.01-0.145l1.022-0.021l-0.693,0.996c-0.264-0.589-0.722-1.222-1.209-1.799
			c-0.492-0.584-1.032-1.141-1.599-1.67c-1.13-1.059-2.37-2.017-3.689-2.801c-0.659-0.391-1.339-0.74-2.034-1.008
			c-0.349-0.132-0.699-0.24-1.05-0.327c-0.35-0.073-0.698-0.128-1.036-0.134c-0.332,0.005-0.663,0.024-0.948,0.131
			c-0.3,0.079-0.543,0.25-0.781,0.431c-0.217,0.211-0.414,0.455-0.57,0.747c-0.159,0.29-0.271,0.62-0.379,0.956l-0.385-0.852
			l0.511,0.194l0.591,0.146c0.222,0.052,0.44,0.098,0.667,0.154l0.707,0.217c0.384,0.117,0.6,0.522,0.482,0.906
			c-0.092,0.299-0.359,0.496-0.654,0.513l-0.047,0.002c-0.987,0.054-1.981,0.018-2.97-0.127c-0.494-0.073-0.988-0.17-1.477-0.312
			c-0.488-0.136-0.975-0.305-1.446-0.531c-0.473-0.216-0.93-0.495-1.353-0.833c-0.222-0.151-0.402-0.371-0.602-0.557
			c-0.192-0.197-0.346-0.436-0.516-0.655c-0.144-0.239-0.274-0.49-0.398-0.741c-0.089-0.265-0.193-0.528-0.26-0.797
			c-0.045-0.271-0.104-0.545-0.129-0.817l-0.015-0.894C91.836,98.427,92.152,98,92.551,98h0.028l9.346-0.222l-0.75,1.179
			l-0.191-0.652c-0.071-0.222-0.08-0.453-0.12-0.685c-0.041-0.238-0.028-0.445-0.044-0.671l-0.016-0.583
			c-0.026-0.15-0.011-0.329-0.062-0.454l-0.052-0.202c-0.006-0.069-0.059-0.134-0.086-0.202c-0.071-0.134-0.107-0.269-0.222-0.407
			l-0.286-0.415l-0.053-0.077c-0.199-0.289-0.191-0.66-0.009-0.937l0.427-0.648c0.13-0.221,0.338-0.411,0.507-0.615
			c0.165-0.209,0.391-0.38,0.607-0.557c0.204-0.188,0.464-0.322,0.716-0.462c0.242-0.157,0.537-0.224,0.812-0.322
			c0.278-0.093,0.577-0.104,0.867-0.149c0.584-0.019,1.16,0.056,1.688,0.228c0.256,0.096,0.529,0.171,0.761,0.303
			c0.238,0.123,0.485,0.236,0.697,0.389c0.448,0.28,0.852,0.607,1.222,0.96c0.374,0.35,0.706,0.734,1.017,1.132
			c0.31,0.4,0.577,0.826,0.833,1.26c0.213,0.363,0.169,0.806-0.077,1.117l-0.047,0.058c-0.36,0.453-0.728,0.912-0.988,1.375
			c-0.137,0.228-0.255,0.461-0.327,0.671c-0.088,0.214-0.12,0.41-0.12,0.542c0.012,0.133,0.015,0.197,0.074,0.259
			c0.056,0.066,0.142,0.166,0.327,0.256c0.34,0.191,0.871,0.329,1.416,0.414c1.106,0.174,2.325,0.19,3.547,0.191
			c1.232,0.002,2.468-0.048,3.811,0.017c0.435,0.02,0.805,0.277,0.993,0.636l1.401,2.713l1.281,2.774
			c0.24,0.519,0.086,1.118-0.338,1.462l-0.08,0.064c-0.365,0.298-0.72,0.594-1.096,0.892l-1.329,0.909l0.612-1.596
			c0.039,0.22-0.104,0.448-0.089,0.676L119,108.929v0.192l0.176,0.771l0.074,0.772l0.04,0.193c0.002,0.035,0.014,0.2-0.002,0.328
			c-0.029,0.269-0.074,0.537-0.146,0.788l-1.226-2.004l3.153,0.172c0.763,0.041,1.349,0.692,1.307,1.455
			c-0.013,0.238-0.085,0.459-0.202,0.648l-0.11,0.18l-0.368,0.592l-0.3,0.666l-0.244,0.733l-0.2,0.791
			c-0.117,0.549-0.229,1.122-0.337,1.717c-0.11,0.603-0.241,1.225-0.396,1.864l-1.889-1.873c0.825-0.259,1.667-0.552,2.532-0.876
			c0.87-0.326,1.771-0.646,2.703-0.949l1.445-0.403c0.506-0.1,1.01-0.205,1.521-0.294c0.53-0.046,1.061-0.096,1.595-0.127
			l1.64,0.095l-1.865,1.187c0.034-0.208,0.11-0.426,0.123-0.62c0.026-0.198,0.042-0.389,0.026-0.56
			c-0.003-0.178-0.032-0.334-0.076-0.486c-0.037-0.152-0.103-0.294-0.178-0.441c-0.156-0.295-0.401-0.599-0.767-0.973
			c-0.176-0.184-0.396-0.396-0.646-0.676c-0.135-0.16-0.267-0.3-0.426-0.55c-0.08-0.133-0.15-0.231-0.227-0.399
			c-0.077-0.179-0.144-0.366-0.196-0.554l3.453-0.789l-0.009-0.037l-0.005-0.018c0.01,0.034-0.033-0.12-0.059-0.178
			c-0.031-0.079-0.068-0.156-0.111-0.23l-0.067-0.107c-0.042-0.058-0.008-0.019-0.115-0.151c-0.032,0.096-0.808-1.202-2.7-0.248
			c-0.994,1.093,0.078,1.334-0.922,1.397v0.068l0.256,0.083c0.002,0.022-0.09,0.01-0.09,0.003L125,110.001v-0.191l0.167-0.399
			l-0.017-0.81l-0.199-1.632l-0.21-1.659l-0.087-0.874l-0.03-0.507c-0.002-0.107-0.004-0.202,0.01-0.406
			c0.005-0.059,0.008-0.103,0.027-0.221c0.013-0.063,0.009-0.064,0.045-0.202l0.054-0.161l0.03-0.079
			c0.011-0.029,0.062-0.138,0.099-0.201c0.084-0.146,0.189-0.285,0.306-0.401c0.179-0.209,0.711-0.517,1.124-0.532
			c0.387-0.031,0.638,0.028,0.948,0.157c0.071,0.032,0.139,0.068,0.203,0.107l0.125,0.083l0.111,0.088
			c0.355,0.336,0.313,0.355,0.418,0.495l-3.144,1.885l-1.116-1.571c-0.201-0.244-0.434-0.454-0.646-0.685l-0.646-0.682l-0.739-0.56
			c-0.25-0.181-0.482-0.387-0.742-0.552l-0.822-0.433c-0.281-0.132-0.525-0.325-0.833-0.412l-0.892-0.313
			c-0.299-0.1-0.581-0.234-0.907-0.28l-0.947-0.201c-0.316-0.064-0.624-0.153-0.961-0.168l-0.988-0.098
			c-0.332-0.023-0.651-0.091-0.994-0.079l-2.031-0.021c-1.104-0.011-1.99-0.916-1.979-2.02c0.01-0.956,0.689-1.749,1.589-1.937
			l0.056-0.011l0.526-0.11c0.195-0.029,0.324-0.078,0.44-0.122l0.189-0.059c0.039-0.023,0.063-0.045,0.099-0.062
			c0.028-0.023,0.078-0.019,0.096-0.054c0.023-0.027,0.05-0.049,0.079-0.069c0.021,0,0.091-0.096,0.136-0.139l0.172-0.187
			c0.165-0.183,0.286-0.339,0.494-0.547c0.369-0.406,0.796-0.76,1.219-1.117l0.714,3.597l-0.522-0.172
			c-0.167-0.06-0.362-0.118-0.505-0.184c-0.287-0.131-0.599-0.265-0.865-0.398l-1.478-0.774l-0.658-0.334l-0.607-0.268l-0.539-0.183
			c-0.154-0.029-0.29-0.045-0.434-0.085l-0.415-0.116c-1.095-0.307-1.733-1.443-1.427-2.538c0.147-0.525,0.49-0.948,0.923-1.209
			c0.779-0.468,1.522-0.963,2.356-1.387c0.804-0.447,1.672-0.847,2.589-1.194c0.925-0.335,1.906-0.64,3.011-0.736
			c1.076-0.145,2.287-0.018,3.397,0.322c1.135,0.345,2.083,0.96,2.928,1.595c0.798,0.66,1.505,1.361,2.111,2.073
			c0.621,0.71,1.175,1.429,1.702,2.143l0.396,0.535l0.099,0.134l0.012,0.017c0.028,0.037-0.224-0.287-0.114-0.146l0.007,0.007
			l0.026,0.03l0.053,0.061l0.101,0.114c-0.022-0.039-0.05-0.075-0.081-0.106c-0.021-0.025-0.094-0.069-0.08-0.064l0.017,0.006
			c-0.003,0.006,0.046,0.022,0.077,0.039c0.074,0.034,0.198,0.081,0.354,0.13c0.625,0.234,1.666,0.333,2.982,1.199
			c0.324,0.228,0.646,0.521,0.925,0.865l0.195,0.271l0.094,0.139l0.046,0.07l0.011,0.018l0.115,0.223l0.009,0.018l0.065,0.146
			c0.026,0.064,0.029,0.048,0.096,0.24c0.05,0.148,0.095,0.301,0.132,0.455c0.038,0.156,0.068,0.321,0.072,0.394
			c0.019,0.187,0.043,0.401,0.042,0.566c0.006,0.344-0.015,0.644-0.042,0.921c-0.12,1.04-0.317,1.91-0.302,2.308
			c-0.005,0.061,0.004,0.071,0.005,0.087c-0.003,0.035,0.004,0.002-0.006-0.026c-0.015-0.042-0.074-0.251-0.244-0.415l0.364,0.339
			c0.171,0.167,0.261,0.215,0.393,0.331c0.509,0.41,1.106,0.804,1.653,1.053c0.555,0.259,1.083,0.381,1.474,0.364
			c0.395-0.02,0.66-0.114,0.983-0.376c0.319-0.263,0.649-0.722,0.95-1.261l1.163,3.216l-1.055-0.509
			c-0.351-0.165-0.7-0.342-1.048-0.599c-0.346-0.244-0.695-0.458-1.028-0.739c-0.327-0.309-0.648-0.627-0.962-0.95
			c-0.288-0.36-0.55-0.761-0.809-1.151c-0.229-0.407-0.401-0.847-0.586-1.276c-0.136-0.428-0.241-0.862-0.343-1.292
			c-0.055-0.402-0.12-0.825-0.152-1.213c-0.018-0.365-0.047-0.767-0.051-1.102l-0.02-0.978c-0.007-0.296-0.011-0.606-0.039-0.835
			l-0.029-0.371l-0.061-0.286c-0.019-0.221-0.104-0.306-0.137-0.45c-0.045-0.13-0.139-0.178-0.17-0.296
			c-0.119-0.07-0.179-0.163-0.293-0.259c-0.16-0.081-0.309-0.171-0.453-0.275l-0.472-0.338c-1.024-0.735-1.259-2.163-0.523-3.187
			c0.269-0.374,0.627-0.641,1.026-0.796c0.538-0.209,1.088-0.413,1.641-0.578l0.842-0.124c0.279-0.031,0.568-0.084,0.84-0.085
			l0.809,0.031c0.264,0.021,0.55,0.014,0.795,0.064l0.748,0.142c0.243,0.054,0.51,0.088,0.733,0.164
			c0.455,0.144,0.926,0.278,1.365,0.439c0.423,0.172,0.854,0.342,1.268,0.521c0.81,0.374,1.581,0.763,2.321,1.163
			c0.752,0.406,1.203,1.152,1.267,1.945l0.009,0.125l0.262,3.663c0.07,0.604,0.164,1.205,0.244,1.808l0.247,1.806l0.02,0.146
			c0.18,1.314-0.733,2.526-2.041,2.723c-0.807,0.121-1.607,0.18-2.372,0.144c-0.769-0.027-1.516-0.113-2.229-0.257
			c-0.722-0.13-1.415-0.312-2.089-0.524c-0.678-0.207-1.334-0.446-1.971-0.714c-2.554-1.064-4.87-2.468-7.001-4.108
			c-2.126-1.647-4.09-3.512-5.771-5.729c-0.417-0.559-0.815-1.14-1.191-1.746c-0.369-0.615-0.717-1.254-1.023-1.935
			c-0.297-0.69-0.383-1.403-0.566-2.189c-0.209-0.766-0.104-1.625-0.104-2.494v-0.06c0-0.916,0.338-1.709,1.111-2.081
			c0.318-0.151,0.546-0.31,0.865-0.44c0.311-0.109,0.578-0.225,0.89-0.319c0.618-0.175,1.213-0.301,1.83-0.391
			c0.619-0.076,1.234-0.121,1.877-0.115c0.323,0.004,0.654,0.036,0.983,0.058c0.341,0.039,0.696,0.108,1.044,0.171
			c0.926,0.166,1.621,0.869,1.822,1.731l0.049,0.215l0.129,0.558l0.193,0.623l0.519,1.417c0.192,0.517,0.388,1.075,0.567,1.69
			c0.086,0.314,0.159,0.66,0.233,0.99c0.059,0.359,0.096,0.742,0.133,1.112l-4.715-0.735c0.414-1.099,0.784-2.209,1.053-3.304
			c0.129-0.546,0.246-1.088,0.322-1.616c0.056-0.271,0.058-0.516,0.09-0.775c0.038-0.263,0.021-0.491,0.03-0.731
			c0.019-0.251-0.023-0.446-0.037-0.66c-0.001-0.231-0.076-0.366-0.103-0.545c-0.025-0.188-0.117-0.245-0.143-0.388
			c-0.066-0.079-0.106-0.147-0.156-0.216c-0.096-0.014-0.074-0.124-0.205-0.138c-0.113-0.022-0.15-0.122-0.342-0.125
			c-0.175-0.007-0.269-0.106-0.506-0.082c-0.209,0-0.417-0.005-0.627-0.019l-0.402-0.025c-1.274-0.079-2.242-1.176-2.163-2.45
			c0.037-0.604,0.308-1.143,0.713-1.531c0.309-0.293,0.579-0.592,0.925-0.875c0.319-0.288,0.689-0.563,1.068-0.83
			c0.403-0.261,0.826-0.511,1.318-0.723c0.487-0.212,1.045-0.374,1.64-0.463c0.608-0.064,1.253-0.062,1.865,0.086
			c0.622,0.125,1.169,0.38,1.668,0.656c0.963,0.582,1.639,1.289,2.195,1.975c0.556,0.691,0.989,1.388,1.378,2.077
			c0.388,0.689,0.727,1.372,1.043,2.046l1.734,3.862l-2.323-1.247c0.588-0.047,1.188-0.116,1.755-0.104
			c0.3-0.005,0.562-0.001,0.803,0.006l0.356,0.059l0.26,0.049h0.13l0.058-0.066c0.038-0.007,0.075-0.035,0.115-0.032
			c0.025-0.011,0.034-0.041,0.055-0.043c0.02-0.009,0.037,0.01,0.078-0.037c0.08-0.083,0.136-0.058,0.263-0.195
			c0.118-0.116,0.238-0.23,0.363-0.34l0.274-0.243c0.868-0.764,2.191-0.681,2.956,0.188c0.128,0.146,0.236,0.312,0.317,0.479
			l0.588,1.229c0.167,0.406,0.315,0.811,0.472,1.216c0.275,0.798,0.517,1.571,0.737,2.306l0.336,1.059
			c0.114,0.341,0.236,0.647,0.353,0.973c0.126,0.305,0.266,0.575,0.393,0.867c0.148,0.255,0.305,0.49,0.447,0.743l-3.315-0.109
			l1.941-2.299l2.168-2.32l1.825,3.467c-0.62,0.084-1.225,0.191-1.882,0.21c-0.318,0.026-0.646,0.033-0.988,0.013
			c-0.336-0.009-0.67-0.019-1.021-0.079c-0.347-0.046-0.692-0.094-1.046-0.2c-0.353-0.083-0.7-0.192-1.043-0.344
			c-0.35-0.127-0.675-0.307-0.997-0.495c-0.334-0.172-0.607-0.412-0.906-0.625c-0.283-0.225-0.531-0.473-0.789-0.714
			c-0.224-0.252-0.465-0.505-0.667-0.763c-0.191-0.258-0.407-0.518-0.573-0.778c-0.168-0.259-0.356-0.522-0.502-0.779
			c-0.629-1.036-1.136-2.049-1.634-3.031c-0.411-0.811-0.172-1.78,0.522-2.315l0.459-0.353c0.063-0.049,0.127-0.093,0.194-0.133
			l0.102-0.057c0.039-0.024,0.062-0.023,0.116-0.064l0.663-0.506l0.777-0.607c0.08-0.058,0.102-0.089,0.229-0.168l0.324-0.206
			c0.219-0.134,0.442-0.261,0.667-0.38l-0.184,3.415l-5.642-3.075c-0.475-0.268-0.947-0.576-1.421-0.862l-1.417-0.875
			c-0.237-0.144-0.459-0.335-0.689-0.501l-0.683-0.516l-1.361-1.036l-0.016-0.012c-0.74-0.562-0.884-1.618-0.321-2.358
			c0.105-0.138,0.234-0.26,0.369-0.355c0.309-0.218,0.618-0.451,0.935-0.647c0.318-0.176,0.635-0.37,0.958-0.524
			c0.325-0.144,0.648-0.302,0.979-0.426c0.333-0.115,0.664-0.24,1-0.341l1.021-0.265l1.043-0.187l1.07-0.099l1.101,0.004
			c0.889,0.003,1.607,0.726,1.604,1.615c-0.001,0.105-0.011,0.208-0.03,0.308l-0.026,0.126c-0.062,0.302-0.121,0.617-0.139,0.969
			c-0.012,0.18-0.011,0.387-0.018,0.579l-0.008,0.675c-0.016,0.262-0.022,0.514-0.049,0.785l-0.065,0.427
			c-0.028,0.143-0.034,0.282-0.084,0.427l-0.13,0.431c-0.05,0.141-0.08,0.292-0.149,0.421l-0.393,0.789l-2.429-1.982l0.811-0.637
			c0.258-0.221,0.581-0.389,0.873-0.579c0.29-0.195,0.613-0.354,0.947-0.5c0.321-0.161,0.659-0.297,1.023-0.394
			c0.35-0.12,0.711-0.211,1.093-0.255c0.372-0.074,0.753-0.096,1.142-0.084c0.385-0.019,0.768,0.046,1.149,0.108
			c0.387,0.039,0.745,0.195,1.113,0.302c0.362,0.124,0.692,0.314,1.034,0.476c0.314,0.201,0.63,0.404,0.924,0.626
			c0.271,0.243,0.563,0.471,0.807,0.733c0.233,0.27,0.496,0.523,0.696,0.811c0.197,0.288,0.425,0.563,0.591,0.866
			c0.165,0.302,0.355,0.595,0.495,0.906c0.3,0.616,0.528,1.25,0.733,1.89c0.227,0.709-0.163,1.467-0.872,1.694
			c-0.063,0.021-0.127,0.036-0.19,0.046l-0.123,0.02c-0.17,0.027-0.322,0.035-0.509,0.069c-0.194,0.043-0.372,0.071-0.581,0.124
			l-1.29,0.318c-0.454,0.11-0.938,0.203-1.441,0.275l-0.787,0.065l-0.835-0.027l0.371-2.527c1.743,0.396,3.564,1.054,5.028,2.471
			c0.355,0.359,0.679,0.759,0.949,1.2c0.12,0.229,0.262,0.448,0.356,0.688c0.089,0.241,0.208,0.475,0.264,0.724
			c0.059,0.247,0.146,0.493,0.17,0.742c0.028,0.248,0.087,0.499,0.083,0.743c0.031,0.496-0.005,0.974-0.052,1.45l-0.006,0.066
			c-0.048,0.491-0.438,0.865-0.912,0.911l-0.708,0.069c-0.241-0.006-0.483-0.015-0.724-0.034c-0.481-0.07-0.954-0.195-1.39-0.395
			c-0.873-0.399-1.573-1.024-2.112-1.708c-0.537-0.69-0.93-1.445-1.223-2.22c-0.293-0.776-0.486-1.576-0.591-2.387
			c-0.101-0.812-0.109-1.635-0.01-2.458c0.103-0.821,0.315-1.647,0.704-2.425c0.192-0.389,0.438-0.76,0.726-1.104
			c0.293-0.341,0.639-0.639,1.018-0.892c0.39-0.238,0.805-0.425,1.234-0.547c0.432-0.118,0.864-0.167,1.295-0.19l-0.728,0.646
			c0.146-0.803,0.274-1.602,0.352-2.395c0.077-0.792,0.104-1.582,0.032-2.345c-0.033-0.382-0.097-0.756-0.192-1.116
			c-0.035-0.186-0.113-0.351-0.168-0.527c-0.055-0.178-0.151-0.331-0.223-0.499c-0.169-0.321-0.383-0.609-0.621-0.88l-0.397-0.369
			l-0.448-0.318l0.792-0.701c0.17,0.546,0.413,1.051,0.517,1.629c0.053,0.287,0.128,0.565,0.158,0.859l0.019,0.902
			c-0.063,0.306-0.104,0.617-0.202,0.911c-0.148,0.276-0.237,0.595-0.451,0.822c-0.193,0.244-0.388,0.485-0.631,0.658
			c-0.225,0.203-0.468,0.36-0.717,0.502c-0.491,0.299-1.001,0.518-1.501,0.736c-0.502,0.214-0.997,0.419-1.479,0.642
			c-0.479,0.224-0.937,0.477-1.362,0.771c-0.208,0.151-0.391,0.329-0.59,0.493c-0.169,0.188-0.323,0.391-0.488,0.586l-0.033,0.039
			c-0.082,0.097-0.228,0.109-0.325,0.026c-0.094-0.079-0.107-0.217-0.036-0.313c0.17-0.229,0.333-0.467,0.514-0.688
			c0.207-0.193,0.405-0.404,0.625-0.582c0.447-0.346,0.923-0.642,1.411-0.902c0.488-0.257,0.981-0.492,1.462-0.729
			c0.479-0.238,0.955-0.476,1.372-0.763c0.215-0.138,0.419-0.285,0.586-0.458c0.197-0.152,0.326-0.346,0.462-0.532
			c0.158-0.175,0.188-0.413,0.296-0.609c0.056-0.22,0.07-0.453,0.117-0.676l-0.049-0.718c-0.035-0.241-0.115-0.485-0.169-0.728
			c-0.104-0.486-0.357-0.96-0.525-1.439l-0.021-0.061c-0.1-0.285,0.051-0.597,0.336-0.697c0.165-0.058,0.342-0.03,0.478,0.057
			l0.58,0.375l0.533,0.452c0.326,0.335,0.62,0.702,0.854,1.106c0.104,0.206,0.231,0.406,0.312,0.621
			c0.08,0.213,0.183,0.425,0.236,0.644c0.136,0.435,0.229,0.876,0.287,1.315c0.121,0.88,0.124,1.753,0.078,2.609
			c-0.047,0.857-0.146,1.699-0.26,2.529c-0.048,0.346-0.326,0.603-0.658,0.639l-0.069,0.007c-0.313,0.034-0.618,0.081-0.903,0.173
			c-0.283,0.096-0.543,0.229-0.785,0.388c-0.231,0.174-0.444,0.372-0.628,0.605c-0.178,0.237-0.337,0.495-0.462,0.78
			c-0.253,0.567-0.396,1.208-0.448,1.865c-0.052,0.658-0.017,1.333,0.095,1.995c0.229,1.317,0.753,2.612,1.553,3.554
			c0.396,0.47,0.859,0.837,1.351,1.042c0.245,0.104,0.499,0.156,0.756,0.19l0.393,0.005l0.4-0.053l-0.917,0.977
			c0.02-0.352,0.037-0.7,0.004-1.034c0.001-0.172-0.052-0.326-0.07-0.49c-0.016-0.166-0.086-0.31-0.123-0.465
			c-0.034-0.158-0.122-0.29-0.176-0.438c-0.059-0.146-0.156-0.271-0.229-0.409c-0.173-0.261-0.381-0.501-0.614-0.726
			c-0.963-0.887-2.389-1.414-3.868-1.691c-0.691-0.129-1.147-0.636-1.018-1.327c0.114-0.611,0.647-0.88,1.247-0.88h0.142
			l0.493-0.162l0.534-0.142c0.371-0.066,0.755-0.191,1.158-0.302l1.278-0.377c0.219-0.062,0.476-0.127,0.713-0.185
			c0.247-0.055,0.536-0.095,0.803-0.137l-1.185,1.758c-0.181-0.499-0.373-0.989-0.615-1.448c-0.111-0.235-0.263-0.44-0.39-0.663
			c-0.126-0.223-0.299-0.402-0.442-0.607c-0.146-0.203-0.334-0.357-0.494-0.541c-0.168-0.174-0.363-0.303-0.539-0.46
			c-0.19-0.131-0.387-0.245-0.578-0.366c-0.207-0.077-0.4-0.194-0.609-0.254c-0.212-0.041-0.41-0.145-0.628-0.146
			c-0.212-0.023-0.423-0.065-0.64-0.037c-0.215-0.003-0.431,0.014-0.648,0.071c-0.218,0.026-0.435,0.09-0.65,0.176
			c-0.219,0.06-0.434,0.155-0.646,0.274c-0.214,0.101-0.428,0.209-0.631,0.361c-0.203,0.147-0.422,0.252-0.612,0.435l-0.592,0.494
			c-0.675,0.563-1.678,0.473-2.241-0.202c-0.388-0.465-0.465-1.086-0.255-1.611l0.068-0.169c0.053-0.131,0.109-0.258,0.171-0.383
			c0.039-0.062,0.036-0.13,0.058-0.194l0.055-0.192c0.026-0.059,0.019-0.143,0.031-0.212l0.028-0.217
			c0.01-0.162,0.008-0.344,0.015-0.515l-0.013-0.626c0-0.242-0.008-0.469,0-0.722c0.009-0.517,0.079-1.059,0.185-1.609l1.548,2.048
			l-0.748,0.022l-0.769,0.096l-0.772,0.164l-0.762,0.225c-0.251,0.085-0.493,0.189-0.741,0.28c-0.242,0.1-0.47,0.223-0.707,0.329
			c-0.23,0.114-0.436,0.253-0.656,0.375c-0.204,0.133-0.382,0.281-0.578,0.415l0.032-2.725l1.207,0.873l0.601,0.438
			c0.205,0.142,0.389,0.302,0.611,0.43l1.32,0.778c0.445,0.257,0.87,0.526,1.329,0.773l5.654,2.942
			c0.83,0.432,1.153,1.456,0.722,2.286c-0.06,0.113-0.129,0.217-0.208,0.31l-0.697,0.819c-0.04,0.047-0.081,0.086-0.127,0.118
			l-0.071,0.043c-0.011-0.004-0.1,0.078-0.146,0.113l-0.688,0.56l-0.814,0.645c-0.069,0.054-0.188,0.123-0.281,0.182l-0.301,0.182
			l-0.611,0.344l0.98-2.667c0.511,0.964,1.01,1.903,1.536,2.731c0.128,0.218,0.268,0.396,0.399,0.596
			c0.132,0.201,0.277,0.356,0.412,0.538c0.139,0.171,0.285,0.309,0.424,0.468c0.149,0.125,0.289,0.267,0.438,0.378
			c0.155,0.093,0.29,0.23,0.453,0.296c0.155,0.084,0.308,0.173,0.479,0.224c0.159,0.073,0.335,0.122,0.52,0.158
			c0.173,0.056,0.372,0.073,0.569,0.095c0.189,0.036,0.404,0.033,0.617,0.034c0.207,0.012,0.426,0.003,0.654-0.023
			c0.44-0.016,0.916-0.114,1.382-0.181c1.136-0.165,2.19,0.623,2.354,1.759c0.092,0.632-0.111,1.239-0.505,1.681l-0.025,0.028
			l-1.896,2.108l-1.893,2.331l-0.048,0.059c-0.706,0.869-1.981,1.001-2.85,0.295c-0.165-0.134-0.308-0.295-0.419-0.463
			c-0.266-0.407-0.541-0.819-0.783-1.233c-0.2-0.412-0.418-0.833-0.596-1.242c-0.155-0.401-0.325-0.815-0.465-1.208l-0.391-1.155
			c-0.24-0.748-0.478-1.452-0.721-2.118l-0.389-0.949l-0.434-0.864l3.548,0.425l-0.716,0.702c-0.218,0.228-0.623,0.476-0.941,0.692
			c-0.153,0.116-0.385,0.203-0.594,0.292c-0.212,0.084-0.432,0.173-0.645,0.234l-0.624,0.113l-0.312,0.044l-0.244-0.171L139.479,84
			h-0.392c-0.259,0-0.497,0.18-0.695,0.188c-0.434-0.003-0.826,0.153-1.233,0.186l-0.109,0.054c-0.95,0.076-1.813-0.428-2.214-1.233
			c-0.675-1.362-1.225-2.635-1.823-3.845c-0.588-1.199-1.228-2.336-1.903-3.166c-0.334-0.411-0.679-0.715-0.934-0.864
			c-0.264-0.129-0.356-0.133-0.548-0.123c-0.104,0.027-0.232,0.056-0.394,0.129c-0.161,0.07-0.346,0.183-0.538,0.305
			c-0.196,0.148-0.396,0.292-0.602,0.483c-0.205,0.163-0.407,0.397-0.613,0.59l-1.852-4.006l1.253,0.015
			c0.396-0.02,0.902,0.131,1.346,0.211c0.444,0.061,0.945,0.319,1.41,0.533c0.475,0.191,0.898,0.613,1.316,0.952
			c0.373,0.383,0.701,0.838,0.971,1.279c0.2,0.44,0.461,0.923,0.557,1.353c0.106,0.433,0.245,0.896,0.268,1.295
			c0.043,0.411,0.099,0.837,0.083,1.215c-0.003,0.386,0.008,0.787-0.035,1.147c-0.037,0.364-0.052,0.748-0.116,1.094
			c-0.098,0.715-0.239,1.4-0.395,2.076c-0.319,1.345-0.733,2.622-1.193,3.874c-0.46,1.254-1.851,1.897-3.104,1.437
			c-0.824-0.302-1.385-1.007-1.541-1.811l-0.069-0.362c-0.029-0.152-0.04-0.295-0.062-0.457c-0.05-0.183-0.083-0.354-0.136-0.547
			c-0.122-0.396-0.275-0.833-0.455-1.302l-0.58-1.547l-0.282-0.885l-0.236-0.98l1.873,1.946c-0.155-0.016-0.296-0.048-0.46-0.067
			c-0.179-0.004-0.349-0.024-0.534-0.025c-0.376,0.001-0.762,0.033-1.152,0.082c-0.39,0.063-0.767,0.144-1.129,0.248
			c-0.173,0.056-0.335,0.121-0.505,0.176c-0.149,0.067-0.279,0.137-0.425,0.198l1.303-2.14c0.021,0.375,0.039,0.77,0.164,1.209
			c0.095,0.43,0.272,0.886,0.465,1.341c0.205,0.457,0.453,0.915,0.725,1.371c0.282,0.454,0.589,0.903,0.916,1.346
			c1.332,1.766,3.009,3.378,4.823,4.785c1.817,1.406,3.812,2.605,5.864,3.461c0.512,0.218,1.029,0.406,1.545,0.563
			c0.515,0.165,1.031,0.299,1.537,0.389c0.508,0.106,1.006,0.158,1.483,0.176c0.482,0.027,0.929-0.018,1.357-0.072l-2.021,2.868
			l-0.272-1.989c-0.088-0.663-0.188-1.326-0.263-1.99l-0.245-3.983l1.275,2.07c-0.674-0.373-1.338-0.715-1.987-1.024l-0.962-0.409
			c-0.316-0.119-0.621-0.203-0.932-0.312c-0.156-0.06-0.296-0.063-0.443-0.101l-0.438-0.094c-0.148-0.039-0.271-0.016-0.407-0.031
			l-0.398-0.03c-0.13-0.004-0.238,0.035-0.358,0.043c-0.118,0.015-0.236,0.025-0.356,0.032c-0.212,0.083-0.418,0.161-0.642,0.215
			l0.032-4.321c0.407,0.238,0.81,0.49,1.202,0.751c0.391,0.306,0.768,0.703,1.123,1.075c0.293,0.441,0.628,0.903,0.818,1.376
			c0.178,0.47,0.379,0.978,0.434,1.407l0.12,0.672l0.047,0.6c0.038,0.418,0.036,0.758,0.042,1.111l0.009,0.971l0.028,0.845
			l0.08,0.721l0.148,0.592c0.087,0.159,0.137,0.336,0.221,0.495c0.113,0.141,0.197,0.294,0.304,0.446
			c0.148,0.134,0.288,0.273,0.423,0.422c0.158,0.14,0.373,0.258,0.552,0.396c0.168,0.145,0.398,0.259,0.638,0.37l0.693,0.352
			l0.22,0.112c1.107,0.562,1.55,1.915,0.987,3.021c-0.013,0.026-0.03,0.059-0.044,0.084c-0.533,0.948-1.188,1.92-2.208,2.735
			c-1.003,0.824-2.438,1.341-3.756,1.339c-1.328,0.017-2.487-0.35-3.477-0.813c-1.002-0.479-1.834-1.046-2.647-1.717
			c-0.19-0.165-0.446-0.371-0.579-0.506l-0.232-0.221l-0.116-0.11l-0.059-0.056l-0.029-0.027l-0.085-0.088l-0.041-0.045
			c-0.449-0.485-0.719-1.079-0.825-1.54c-0.06-0.236-0.104-0.476-0.114-0.656c-0.018-0.197-0.031-0.4-0.023-0.553
			c0.009-0.674,0.098-1.185,0.172-1.63c0.075-0.444,0.146-0.835,0.183-1.146c0.016-0.148,0.023-0.275,0.024-0.359
			c0.002-0.049-0.008-0.047-0.003-0.074c0.001-0.035,0.003,0.027,0.017,0.079c0.013,0.049,0.033,0.098,0.06,0.143
			c0.05,0.085-0.003-0.024-0.017-0.059l-0.064-0.147l-0.008,0.093C128.25,97.633,128.286,98,128.19,98H128v-0.218l0.191,0.007
			c0.002,0.004,0.103,0.007,0.107,0.009c0.008,0.014,0.063,0.013,0.038-0.007c-0.105-0.117-0.773-0.327-1.762-0.627
			c-0.251-0.083-0.519-0.183-0.831-0.33c-0.159-0.078-0.303-0.145-0.482-0.261l-0.253-0.163c-0.079-0.049-0.226-0.171-0.331-0.262
			c-0.113-0.099-0.223-0.204-0.326-0.311l-0.109-0.127l-0.052-0.061l-0.17-0.216l-0.091-0.125l-0.36-0.501
			c-0.481-0.667-0.968-1.309-1.467-1.891c-0.495-0.597-1.01-1.1-1.52-1.54c-0.519-0.387-1.022-0.725-1.535-0.876
			c-0.519-0.15-1.044-0.246-1.665-0.162c-0.603,0.036-1.278,0.229-1.957,0.469c-0.682,0.252-1.38,0.556-2.073,0.935
			c-0.697,0.34-1.384,0.79-2.076,1.192l-0.919-3.864c0.385,0.066,0.783,0.138,1.152,0.231c0.33,0.112,0.67,0.228,0.987,0.352
			l0.865,0.402l0.777,0.412l1.375,0.754c0.114,0.065,0.201,0.098,0.303,0.149l0.295,0.142c0.101,0.051,0.169,0.061,0.254,0.096
			l0.242,0.093l0.107,0.042c1.081,0.417,1.62,1.631,1.203,2.712c-0.129,0.335-0.342,0.624-0.597,0.842
			c-0.261,0.223-0.537,0.429-0.774,0.685c-0.114,0.104-0.276,0.296-0.414,0.443l-0.289,0.303c-0.117,0.112-0.181,0.202-0.345,0.331
			l-0.444,0.351c-0.146,0.123-0.319,0.193-0.481,0.287c-0.164,0.086-0.335,0.175-0.498,0.248l-0.45,0.149
			c-0.308,0.104-0.606,0.188-0.856,0.224l-0.794,0.147l-0.334-3.967l2.314,0.066c0.383-0.003,0.779,0.077,1.169,0.112l1.171,0.141
			c0.39,0.03,0.782,0.139,1.174,0.226l1.173,0.275c0.394,0.071,0.774,0.242,1.159,0.379l1.148,0.435
			c0.388,0.129,0.735,0.378,1.104,0.564l1.085,0.61c0.345,0.229,0.662,0.502,0.992,0.753c0.324,0.259,0.656,0.511,0.97,0.78
			l0.842,0.902c0.273,0.306,0.567,0.598,0.819,0.917l1.363,1.999l-3.144,1.885c0.085,0.112,0.026,0.101,0.355,0.414l0.103,0.079
			l0.12,0.08c0.062,0.038,0.127,0.073,0.196,0.104c0.303,0.127,0.545,0.181,0.924,0.151c0.406-0.012,0.929-0.316,1.102-0.521
			c0.111-0.109,0.213-0.241,0.292-0.381c0.035-0.06,0.083-0.164,0.093-0.189l0.027-0.066l0.044-0.138l0.034-0.151l0.015-0.119
			c0.004-0.068,0-0.026,0.001,0.002l0.018,0.31l0.073,0.754l0.198,1.585l0.223,1.606l0.116,0.809l0.059,0.41l0.029,0.213
			l0.017,0.122l0.012,0.104l0.008,0.108l0.003,0.081c-0.12,0.063,0.32,0.307-0.674,1.4c-1.894,0.955-2.419-0.342-2.452-0.245
			c-0.106-0.132-0.073-0.095-0.115-0.153l-0.068-0.11c-0.044-0.076-0.082-0.156-0.113-0.237c-0.027-0.06-0.071-0.215-0.062-0.183
			l-0.008-0.031l-0.015-0.062l3.453-0.789c-0.003-0.051-0.02-0.103-0.047-0.146c-0.021-0.035-0.001-0.017-0.011-0.024
			c-0.009-0.001,0.055,0.075,0.104,0.138l0.546,0.589c0.432,0.463,0.941,1.058,1.31,1.8c0.181,0.371,0.335,0.768,0.43,1.181
			c0.101,0.405,0.154,0.831,0.155,1.23c0.013,0.41-0.027,0.796-0.088,1.172c-0.051,0.382-0.164,0.717-0.25,1.074
			c-0.186,0.771-0.905,1.271-1.671,1.205l-0.194-0.018l-1.139-0.098l-1.183,0.062l-1.219,0.199l-1.247,0.312
			c-0.841,0.247-1.698,0.523-2.575,0.824c-0.883,0.303-1.802,0.596-2.758,0.864c-0.812,0.229-1.656-0.244-1.885-1.057
			c-0.077-0.273-0.072-0.56-0.004-0.815c0.143-0.528,0.277-1.081,0.4-1.66c0.123-0.587,0.259-1.192,0.411-1.817l0.271-0.953
			l0.355-0.971l0.472-0.967l0.614-0.925l0.991,2.283l-2.873-0.242l-1.23-2.004c-0.052,0.003-0.086,0.024-0.095,0.044
			c-0.006,0.005-0.002,0.046,0.001-0.044l0.008-0.18l0.033-0.719l0.018-0.72l0.005-0.181c0.002-0.081-0.002-0.041,0.003-0.067
			c0.006-0.021,0.025-0.041,0.055-0.069l0.612-1.596l1.035-0.666c0.374-0.28,0.756-0.58,1.134-0.869l-0.418,1.526l-1.15-2.675
			l-1.272-2.621l0.993,0.637c-1.148-0.086-2.409-0.072-3.67-0.104c-1.27-0.035-2.555-0.072-3.91-0.317
			c-0.679-0.133-1.381-0.291-2.13-0.72c-0.366-0.2-0.762-0.526-1.057-0.97c-0.315-0.446-0.429-1.03-0.415-1.512
			c0.016-0.491,0.138-0.912,0.286-1.272c0.145-0.373,0.323-0.695,0.512-0.996c0.372-0.615,0.802-1.122,1.23-1.632l-0.124,1.174
			c-0.199-0.353-0.404-0.702-0.645-1.028c-0.239-0.323-0.495-0.636-0.779-0.913c-0.279-0.281-0.58-0.536-0.897-0.745
			c-0.153-0.121-0.322-0.195-0.484-0.287c-0.161-0.104-0.332-0.142-0.498-0.215c-0.335-0.121-0.668-0.163-0.993-0.168
			c-0.156,0.033-0.322,0.017-0.474,0.071c-0.149,0.06-0.314,0.07-0.454,0.168c-0.146,0.081-0.301,0.14-0.432,0.265
			c-0.136,0.11-0.285,0.202-0.402,0.353c-0.119,0.146-0.268,0.252-0.37,0.426l-0.336,0.48l-0.062-1.013l0.385,0.586
			c0.136,0.181,0.229,0.431,0.333,0.659c0.046,0.119,0.11,0.225,0.134,0.357l0.091,0.383c0.071,0.261,0.054,0.492,0.08,0.739
			l0.004,0.62c0.012,0.174-0.003,0.367,0.027,0.525c0.03,0.164,0.023,0.331,0.078,0.493l0.13,0.489l0.028,0.106
			c0.116,0.438-0.145,0.888-0.583,1.005c-0.064,0.017-0.133,0.026-0.196,0.027l-9.352,0.172l0.735-0.745l0.003,0.603
			c0.017,0.197,0.06,0.386,0.083,0.581c0.045,0.188,0.117,0.364,0.169,0.549l0.263,0.507c0.122,0.149,0.216,0.317,0.353,0.458
			c0.147,0.133,0.26,0.294,0.43,0.408c0.163,0.119,0.309,0.259,0.495,0.355c0.178,0.105,0.349,0.222,0.546,0.303
			c0.376,0.188,0.782,0.34,1.202,0.456c0.417,0.124,0.851,0.21,1.288,0.277c0.876,0.133,1.777,0.171,2.673,0.127l-0.219,1.421
			l-0.557-0.172c-0.201-0.052-0.414-0.098-0.621-0.146l-0.691-0.176l-0.724-0.28c-0.329-0.128-0.5-0.488-0.395-0.82l0.01-0.031
			c0.135-0.426,0.284-0.851,0.51-1.263c0.224-0.412,0.525-0.799,0.89-1.137c0.387-0.311,0.824-0.585,1.3-0.717
			c0.469-0.162,0.95-0.191,1.411-0.192c0.462,0.01,0.904,0.082,1.335,0.176c0.425,0.106,0.836,0.237,1.234,0.39
			c0.794,0.31,1.537,0.698,2.248,1.124c1.424,0.854,2.714,1.875,3.926,2.983c0.604,0.559,1.182,1.146,1.723,1.779
			c0.539,0.641,1.054,1.297,1.451,2.165c0.162,0.352,0.008,0.769-0.345,0.931c-0.088,0.04-0.179,0.061-0.27,0.063l-0.078,0.002
			l-0.844,0.024c-0.279,0.031-0.557,0.086-0.836,0.125c-0.276,0.062-0.55,0.149-0.826,0.221c-0.272,0.095-0.544,0.205-0.816,0.306
			c-0.54,0.235-1.081,0.499-1.623,0.784l-1.667,0.872l0.41-0.731l0.096,0.607c0.026,0.204,0.109,0.383,0.157,0.576
			c0.041,0.198,0.158,0.354,0.229,0.535c0.069,0.183,0.209,0.322,0.306,0.488c0.229,0.31,0.519,0.58,0.834,0.836
			c0.334,0.242,0.69,0.47,1.077,0.678c0.773,0.419,1.633,0.776,2.491,1.216c0.431,0.22,0.859,0.463,1.28,0.731
			c0.422,0.273,0.822,0.588,1.21,0.927c0.234,0.205,0.314,0.521,0.23,0.801l-0.008,0.025c-0.411,1.356-1.079,2.637-2.006,3.724
			c-0.933,1.073-2.074,2.032-3.599,2.479c-0.755,0.201-1.678,0.268-2.536-0.158c-0.423-0.198-0.794-0.513-1.062-0.866
			c-0.289-0.35-0.462-0.737-0.604-1.116c-0.134-0.381-0.218-0.762-0.268-1.134s-0.08-0.741-0.078-1.1
			c-0.017-0.726,0.071-1.416,0.161-2.105l0.956,1.132l-2.261-0.083l-2.244-0.309l-2.205-0.53l-2.145-0.747
			c-0.554-0.192-0.846-0.798-0.653-1.351c0.084-0.242,0.248-0.435,0.451-0.559l0.204-0.123c0.202-0.122,0.391-0.197,0.607-0.345
			c0.216-0.152,0.427-0.274,0.647-0.448c0.436-0.322,0.877-0.674,1.323-1.031c0.447-0.362,0.907-0.726,1.385-1.092l0.752-0.54
			c0.265-0.178,0.563-0.348,0.846-0.519l-0.19,2.03c-1.614-1.218-3.18-2.453-4.774-3.6c-1.586-1.132-3.23-2.227-4.861-2.862
			c-0.401-0.145-0.802-0.271-1.163-0.317c-0.372-0.071-0.68-0.039-0.927,0.017c-0.252,0.05-0.414,0.179-0.601,0.359
			c-0.188,0.165-0.347,0.479-0.5,0.801c-0.142,0.346-0.257,0.737-0.347,1.156c-0.078,0.426-0.159,0.855-0.191,1.316
			c-0.098,0.901-0.09,1.855-0.079,2.805l-1.145-1.492c0.732,0.214,1.421,0.456,2.066,0.737c0.656,0.272,1.285,0.57,1.902,0.89
			c1.236,0.634,2.427,1.336,3.583,2.117c0.577,0.392,1.144,0.811,1.702,1.248c0.554,0.45,1.099,0.93,1.627,1.453
			c0.533,0.571,1.01,1.07,1.514,1.921c0.128,0.229,0.25,0.462,0.364,0.696l0.175,0.473l0.042,0.117l0.021,0.058l0.051,0.182
			l0.001,0.009l0.003,0.018l0.007,0.036l0.054,0.289l0.104,0.58c0.084,0.38,0.116,0.781,0.12,1.194
			c0.015,0.408,0.039,0.813-0.032,1.238c-0.072,0.834-0.293,1.693-0.66,2.485c-0.195,0.393-0.375,0.799-0.648,1.141
			c-0.252,0.358-0.509,0.714-0.823,1.003c-0.297,0.314-0.608,0.607-0.95,0.845c-0.33,0.265-0.672,0.497-1.033,0.683
			c-0.353,0.213-0.713,0.393-1.083,0.535c-0.366,0.165-0.735,0.306-1.109,0.408c-0.744,0.246-1.499,0.395-2.252,0.496
			c-0.754,0.108-1.509,0.14-2.262,0.137c-0.753-0.008-1.502-0.081-2.249-0.183c-1.063-0.144-1.809-1.122-1.666-2.187
			c0.032-0.231,0.103-0.448,0.206-0.645l0.097-0.182l0.315-0.594c0.091-0.211,0.171-0.433,0.262-0.646
			c0.152-0.453,0.282-0.934,0.384-1.446c0.208-1.03,0.308-2.166,0.489-3.436l2.388,2.321c-0.578,0.089-1.15,0.187-1.765,0.198
			c-0.299,0.025-0.612,0.012-0.926-0.007c-0.311-0.005-0.628-0.044-0.947-0.104c-0.633-0.094-1.275-0.288-1.876-0.547
			c-0.609-0.252-1.165-0.594-1.681-0.958c-0.5-0.376-0.958-0.779-1.359-1.195c-0.401-0.414-0.769-0.838-1.097-1.25
			c-0.667-0.828-1.236-1.625-1.8-2.322c-0.561-0.696-1.117-1.278-1.688-1.693c-0.283-0.219-0.574-0.373-0.872-0.507
			c-0.298-0.133-0.611-0.221-0.941-0.285c-0.335-0.055-0.684-0.087-1.056-0.076c-0.37,0.009-0.754,0.035-1.153,0.112
			c-0.395,0.059-0.801,0.159-1.211,0.272c-0.408,0.102-0.825,0.266-1.239,0.391l-0.906-4.051c0.438-0.03,0.878-0.053,1.328-0.041
			c0.45,0.013,0.904,0.042,1.369,0.117c0.462,0.069,0.934,0.172,1.411,0.334c0.475,0.15,0.958,0.364,1.428,0.647
			c0.471,0.277,0.923,0.651,1.326,1.086c0.394,0.451,0.725,0.97,0.95,1.522c0.095,0.274,0.218,0.559,0.267,0.834
			c0.05,0.274,0.127,0.564,0.135,0.828c0.054,0.548,0.021,1.054-0.027,1.555c-0.092,0.954-0.843,1.686-1.759,1.785l-0.123,0.014
			c-0.271,0.029-0.543,0.055-0.791,0.108c-0.25,0.049-0.49,0.109-0.695,0.19c-0.215,0.073-0.4,0.166-0.551,0.265
			c-0.088,0.042-0.142,0.102-0.21,0.149c-0.077,0.044-0.105,0.11-0.167,0.156c-0.098,0.107-0.169,0.221-0.23,0.349
			c-0.017,0.074-0.063,0.128-0.075,0.212c-0.012,0.083-0.051,0.148-0.051,0.247c-0.005,0.093-0.033,0.175-0.023,0.284
			c0.006,0.105-0.014,0.2,0.008,0.318c0.012,0.221,0.063,0.465,0.11,0.711l-2.044-1.543c0.781,0.013,1.551-0.02,2.339,0.039
			c0.791,0.072,1.577,0.118,2.38,0.3c0.796,0.117,1.6,0.389,2.395,0.642l1.18,0.52c0.389,0.187,0.763,0.441,1.14,0.667
			c0.739,0.497,1.429,1.107,2.022,1.82c0.302,0.349,0.536,0.759,0.796,1.143c0.22,0.406,0.417,0.832,0.596,1.257
			c0.303,0.872,0.517,1.772,0.553,2.67c0.025,0.448,0.036,0.896-0.015,1.334c-0.021,0.444-0.092,0.876-0.183,1.304
			c-0.164,0.858-0.459,1.676-0.811,2.464c-0.186,0.39-0.4,0.767-0.613,1.143c-0.25,0.355-0.473,0.728-0.754,1.063
			c-0.557,0.673-1.168,1.318-1.918,1.834c-0.717,0.548-1.575,0.945-2.464,1.247c-0.913,0.243-1.881,0.383-2.828,0.272l-0.707-0.083
			c-0.23-0.044-0.452-0.115-0.677-0.175c-0.223-0.065-0.452-0.122-0.666-0.201l-0.618-0.278c-0.425-0.174-0.797-0.403-1.158-0.646
			l-0.547-0.357L70.4,141.81c-0.676-0.524-1.197-1.14-1.756-1.733c-0.669-0.711-0.636-1.829,0.075-2.498
			c0.328-0.309,0.743-0.468,1.16-0.479l0.264-0.008c0.208-0.005,0.416-0.005,0.625,0.002l0.659-0.086l0.707-0.171l0.761-0.24
			l1.701-0.588l0.955-0.28l1.029-0.216l-1.468,1.75c-0.008-0.385-0.039-0.791-0.093-1.209c-0.059-0.419-0.135-0.835-0.231-1.247
			c-0.05-0.203-0.11-0.401-0.163-0.603c-0.056-0.2-0.13-0.379-0.192-0.57c-0.064-0.191-0.149-0.34-0.219-0.514
			c-0.034-0.094-0.079-0.139-0.116-0.209l-0.111-0.197l2.751-0.024c-0.36,0.484-0.707,0.971-1.096,1.448
			c-0.377,0.479-0.778,0.953-1.228,1.42c-0.434,0.467-0.939,0.927-1.552,1.363l-0.509,0.315c-0.206,0.1-0.406,0.195-0.623,0.28
			c-0.48,0.15-1.061,0.286-1.725,0.134c-0.647-0.128-1.206-0.508-1.537-0.865c-0.371-0.37-0.569-0.722-0.764-1.062
			c-0.358-0.676-0.559-1.289-0.746-1.883c-0.362-1.177-0.613-2.302-0.945-3.272c-0.083-0.239-0.169-0.463-0.259-0.666l-0.136-0.274
			c-0.043-0.049-0.005-0.041-0.087-0.147l-0.136-0.167l-0.034-0.042c0.136,0.15,0.035,0.039,0.064,0.072l-0.004-0.004l-0.008-0.008
			l-0.016-0.016l-0.065-0.062l-0.261-0.25c-0.17-0.182-0.35-0.312-0.527-0.444c-0.354-0.289-0.707-0.428-0.995-0.529
			c-0.279-0.048-0.414-0.021-0.572,0.056c-0.166,0.06-0.356,0.345-0.518,0.683c-0.068,0.188-0.155,0.366-0.192,0.597
			c-0.06,0.21-0.101,0.437-0.118,0.68c-0.037,0.232-0.05,0.477-0.045,0.729c-0.008,0.248-0.01,0.498,0.019,0.756
			c0.018,0.51,0.115,1.029,0.191,1.549l0.004,0.028c0.108,0.74-0.4,1.429-1.138,1.545l-0.814,0.129
			c-0.141,0.012-0.257,0.069-0.387,0.101l-0.382,0.11c-0.257,0.071-0.465,0.208-0.704,0.302c-0.232,0.104-0.406,0.271-0.619,0.396
			c-0.111,0.06-0.171,0.165-0.261,0.242l-0.256,0.248c-0.137,0.192-0.264,0.392-0.402,0.586c-0.086,0.229-0.192,0.447-0.282,0.678
			l-0.17,0.75l-1.219-1.327c0.313,0.018,0.626,0.042,0.937,0.074l0.837,0.208c0.517,0.176,1.006,0.37,1.452,0.578l1.266,0.577
			c0.21,0.101,0.375,0.138,0.564,0.217c0.185,0.068,0.308,0.066,0.465,0.119l0.239,0.079c0.569,0.189,0.877,0.805,0.688,1.374
			c-0.042,0.127-0.108,0.243-0.188,0.342l-0.43,0.53l-0.379,0.584c-0.228,0.409-0.432,0.834-0.589,1.279
			c-0.088,0.219-0.131,0.45-0.202,0.675c-0.072,0.226-0.083,0.455-0.131,0.684c-0.05,0.229-0.03,0.452-0.053,0.68
			c-0.018,0.228,0.03,0.437,0.036,0.657c0.026,0.214,0.096,0.404,0.133,0.612c0.092,0.168,0.145,0.37,0.253,0.521
			c0.121,0.136,0.197,0.321,0.358,0.414l0.208,0.18c0.079,0.049,0.172,0.079,0.256,0.124c0.088,0.038,0.167,0.094,0.263,0.124
			l0.305,0.065c0.103,0.021,0.201,0.053,0.308,0.068l0.337,0.006c0.226,0.005,0.449,0.029,0.69-0.021l0.712-0.094l-0.622,0.761
			l0.168-1.944c0.084-0.639,0.188-1.271,0.281-1.907c0.224-1.254,0.437-2.489,0.629-3.716l1.248,0.186l-0.162,1.17
			c-0.019,0.392-0.005,0.784-0.012,1.178c-0.005,0.197,0.047,0.388,0.068,0.582l0.082,0.582c0.02,0.196,0.105,0.373,0.154,0.562
			l0.171,0.56c0.056,0.187,0.169,0.346,0.25,0.521l0.261,0.521c0.22,0.314,0.47,0.609,0.702,0.922
			c0.296,0.245,0.588,0.501,0.891,0.747l1.039,0.55l-0.294,0.016c0.334-0.185,0.707-0.333,0.995-0.565
			c0.161-0.103,0.307-0.217,0.425-0.353l0.194-0.192l0.146-0.225c0.044-0.078,0.112-0.143,0.137-0.232l0.103-0.254
			c0.077-0.166,0.095-0.364,0.147-0.545c0.066-0.38,0.109-0.781,0.147-1.188c0.012-0.128,0.311-0.223,0.439-0.21
			c0.124,0.012,0.396,0.117,0.396,0.239V145.29z"/>
	</g>
</g>
</svg>
